<svg id="Layer_1" data-name="Layer 1" xmlns="http://www.w3.org/2000/svg" viewBox="0 0 491.52 491.52"><defs><style>.cls-1,.cls-5{fill:#e9d9a8;}.cls-2{fill:#ebddb1;}.cls-2,.cls-4,.cls-5{fill-rule:evenodd;}.cls-3{fill:#5f5647;}.cls-4{fill:#8a8479;}</style></defs><title>Universal_(537) [Converted]</title><circle class="cls-1" cx="246.26" cy="246.74" r="245.76" transform="translate(-102.84 245.42) rotate(-45)"/><path class="cls-2" d="M311.17,328.86" transform="translate(-0.5 -0.98)"/><path class="cls-2" d="M283.13,307.47" transform="translate(-0.5 -0.98)"/><circle class="cls-3" cx="245.76" cy="245.76" r="230.99"/><path class="cls-4" d="M52.27,204.3A15.59,15.59,0,0,0,50.93,210c-.61-2.46-1.42-2.55-2.38-.13-.15-3-3-13.43.39-13.43C52.45,197.48,46.48,203.85,52.27,204.3Z" transform="translate(-0.5 -0.98)"/><path class="cls-4" d="M56.6,160.8c.63.51-.05,8.53.61,8.24a1.8,1.8,0,0,1,.82-1.95c-.06.52-.15.81-.23,1.22a1,1,0,0,1,1.61-.1c1.88-5.82-2.47-2.67-1.47-6.45,9.47,2.55.58,10.39-.09,16.05,0-.62.78-7.53-2.07-4.83.2-.36.48-1.35.84-2.37-1.11-.13-2.36-4.09-2.53-5.79-.63-1.2-3.2,6.17-3.58,6.72-.76.84,6.15-18.27,4.54-4.67A29.1,29.1,0,0,0,56.6,160.8Z" transform="translate(-0.5 -0.98)"/><path class="cls-4" d="M126.63,175.24c5.09-.25,2.24,1.89,5.88,1.94.47,2.07-.64,2.6-3.19,1.49,1.74-.58-5.12-.28-7-.14C123.2,178.34,131.58,177.83,126.63,175.24Z" transform="translate(-0.5 -0.98)"/><path class="cls-4" d="M145.43,211.67c-.5-1.75-1.82,1.37-3.14.67,1.8-5.71,2.49-2.94,5.22-5.84,1.41-4.41-2.39-1.58-3.47-4.08.74-1.34,5.73-4.19,7.41-2.47-.5.79-.38,7.58-1.39,7.83.54,1.26,3.55-3.42,3.92-2.27-.72,1.61-.72,1.9-.39,1.78s.66-.41,1.13-.63a6.94,6.94,0,0,0-1.13.63c-6.94,4.63-6.47,21.34-17.42,14.82,1.83-2.19,1.17-3.08,2.19-5.4C141.51,218.85,146.36,215.13,145.43,211.67Z" transform="translate(-0.5 -0.98)"/><path class="cls-4" d="M147.09,173.23c.45,1.21-4.39,6.92-4.7,5.77C142.14,178.09,144.84,171.57,147.09,173.23Z" transform="translate(-0.5 -0.98)"/><path class="cls-4" d="M178.5,111.59l0,0c3.28-2-1.69-2.38,3.16-4.5a10.46,10.46,0,0,1,1.42,1,16,16,0,0,1,2.74-1.08,2.46,2.46,0,0,1,.56,2.35c.58-.05,1.28-.12,2.3-.29,2.17-4.33-9.46-3.11-.32-7.43,2.29,1.67-1.25,5.42,3.6,4.75,1,3.91,2.59,4.89-2.09,6.51-1.13-3-2.27-2.78-3.64-1.74.15.62.74,1,2.53,1,.51,4,1.92,5.15-2.9,6.16-1.4-6-4.31-.26-8.13,0,4.72-2.37-6.23-2-4.54-2.31C179.67,114.3,172.8,113.19,178.5,111.59Z" transform="translate(-0.5 -0.98)"/><path class="cls-4" d="M173.12,79.16c-2.66-5.18-.39-13.17-5.54-16.79C174.11,61.07,176.54,78.26,173.12,79.16Z" transform="translate(-0.5 -0.98)"/><path class="cls-4" d="M205.24,59.19a16,16,0,0,1-3.19-4.64c-1.63,2.18-5.36,4.26-3.72-2,.22-.92.45-2.48.76-3.45a8.34,8.34,0,0,0-4.75-3.77c2.24-1.35,4.84.24,7,2.75l2.13-.24a2.16,2.16,0,0,1-1,1.76C205.18,53.33,206.79,58.13,205.24,59.19Z" transform="translate(-0.5 -0.98)"/><path class="cls-4" d="M238.87,80.8c-5.48-2-9.28-9.37-15.48-8.53C227.26,66.93,240.72,77.85,238.87,80.8Z" transform="translate(-0.5 -0.98)"/><path class="cls-4" d="M285.93,287.07a1.29,1.29,0,0,1,.51-1.91,50.52,50.52,0,0,0,5.39,0A1.41,1.41,0,0,0,292,285c.2.1.07.14-.17.18-1.38,1.44-7.08,9.38-8.18,7.72C284,292.67,289.72,287.33,285.93,287.07Z" transform="translate(-0.5 -0.98)"/><path class="cls-4" d="M306.57,98.17c1.84-.14,4.54,4.56,4.36,6.44-7.5-.08-.45,2.52-5.46,2.9C305.11,107,306.7,99.49,306.57,98.17Z" transform="translate(-0.5 -0.98)"/><path class="cls-4" d="M311.52,192.71c-2.13,2.29-3.61,4.45-1.44,6.54-.44,1.41-1,1.78-1.67,1.11-1.05-1-2.14-2-3.23-3C306.38,196,309.68,191.58,311.52,192.71Z" transform="translate(-0.5 -0.98)"/><path class="cls-4" d="M331.33,53.68c-2.17-2.66-2.51-1.13-2.95-4.86C329.5,47.94,334.65,51.64,331.33,53.68Z" transform="translate(-0.5 -0.98)"/><path class="cls-4" d="M331.19,55c.42.35-1.15,1.81-1.14,2.21a2.84,2.84,0,0,0,3-.6c-.45,1.18-11.53,5.77-12.31,5.07C322,61.14,329.08,53.37,331.19,55Z" transform="translate(-0.5 -0.98)"/><path class="cls-4" d="M335.32,78.42c3.71.71,11.44,2.25,10.24,6.34-2.07-.42-6-1.07-3.19-3.22C342.79,79.77,333.16,81.23,335.32,78.42Z" transform="translate(-0.5 -0.98)"/><path class="cls-4" d="M341.24,112.46c1.31.45,1.37,6.78-2.21,5.32C339.87,114.38,338.45,115.07,341.24,112.46Z" transform="translate(-0.5 -0.98)"/><path class="cls-4" d="M347,165.48c-7.93-4.4-12.93,1.73-20.71-4.32a3,3,0,0,1-.67-3.9C329.8,158.21,347.87,161.76,347,165.48Z" transform="translate(-0.5 -0.98)"/><path class="cls-4" d="M351.59,301.74c-1.67.7-15.19-10.55-13-12.79,2.93-.55,3.23,3.45,6.89,4.15-3,5,2.41,1.69,3.38,5.55a1.62,1.62,0,0,0-2-.78C348.43,299.22,350,300.54,351.59,301.74Z" transform="translate(-0.5 -0.98)"/><path class="cls-4" d="M408.63,163.22c.14,1.57-.64,2.43-2.34,2.55C406,167.61,402,161.79,408.63,163.22Z" transform="translate(-0.5 -0.98)"/><path class="cls-4" d="M413.24,290.05c-.18-.21-.17-.8-.05-1.6a7.36,7.36,0,0,0-1.47-3.69c-2,.71-2.87,2.26-2.83,4.66-4.38-.75,4.26-9.36,2.14-10.9,2.12,1.55,1.18,2.05,4.66,2.2a32,32,0,0,0-2.5,7.73A8.48,8.48,0,0,1,413.24,290.05Z" transform="translate(-0.5 -0.98)"/><path class="cls-4" d="M417.19,184.27c1.95,4.21-4.87,5.82-6.38,1.91Z" transform="translate(-0.5 -0.98)"/><path class="cls-4" d="M411.35,150.72c1.92-8.53,4.19-.75,5.64-.9C415.34,153.86,413.14,149.85,411.35,150.72Z" transform="translate(-0.5 -0.98)"/><path class="cls-4" d="M413.44,138.6c4.12-2.75,2.49.52,5.78-1.26C420.21,140,414,141.24,413.44,138.6Z" transform="translate(-0.5 -0.98)"/><path class="cls-4" d="M412.7,216c-.72,2.84-2.7,2.53-5.86-1C407.66,212.28,409.62,212.62,412.7,216Z" transform="translate(-0.5 -0.98)"/><path class="cls-4" d="M408.5,259c0-1.49-1-5.86,1.4-5.62C408.58,257.35,412.74,260.22,408.5,259Z" transform="translate(-0.5 -0.98)"/><path class="cls-4" d="M415.2,232.26c.92-.28-2.95-7.41,1.57-3.59a16.87,16.87,0,0,1-2.64-5.17c3.13-2.07,5.06,8.9,5.7,10.05C416.42,230.7,420.49,239,415.2,232.26Z" transform="translate(-0.5 -0.98)"/><path class="cls-4" d="M420.44,254.46c-.11,3-2.07,3.07-6,.42C414.65,252,416.64,251.86,420.44,254.46Z" transform="translate(-0.5 -0.98)"/><path class="cls-4" d="M418,130.53c-8-3.47,0-4.26.14-5.73C421.78,127.2,417.43,128.58,418,130.53Z" transform="translate(-0.5 -0.98)"/><path class="cls-4" d="M407.32,327.15a9.15,9.15,0,0,1,.4,1c-.18-.1-.3-.51-.4-1a7.34,7.34,0,0,0-2.51-3.63c-1.71,1.22-2.12,3-1.42,5.26-4.43.53,1.47-10.2-1-11,2.45.9,1.7,1.64,5.07.81A31,31,0,0,0,407.32,327.15Z" transform="translate(-0.5 -0.98)"/><path class="cls-4" d="M395.09,416.77c1.26,0-.54,5.49-.53,5.79C389.82,423.63,394.2,415.85,395.09,416.77Z" transform="translate(-0.5 -0.98)"/><path class="cls-4" d="M390.7,400.86c1.12-.55,1.81,5.2,2,5.42C388.88,409.31,389.53,400.37,390.7,400.86Z" transform="translate(-0.5 -0.98)"/><path class="cls-4" d="M387.77,287.37c2.72-.6,9.08,2.17,10.59,4.46C397.55,293.63,386.72,288.4,387.77,287.37Z" transform="translate(-0.5 -0.98)"/><path class="cls-4" d="M356.67,370.08c-2.15-3.5,3-4.19,5.14-1a6.14,6.14,0,0,1-1.41.64,25.76,25.76,0,0,0,5.05,1.46c1.42,2.65-1,9.35-3.69,10.1-2.56-1.39-3.77-8.4-2.05-11.24A5.79,5.79,0,0,1,356.67,370.08Z" transform="translate(-0.5 -0.98)"/><path class="cls-4" d="M328.41,440.57c.85-2.71,1.92-3.11,3.25-1.13,4.07,2.82-2.26,1,1.77,3.95A10,10,0,0,1,328.41,440.57Z" transform="translate(-0.5 -0.98)"/><path class="cls-4" d="M306.63,334.22c.58,1.17-5.44,1.91-5.69,2.06C297.78,332.3,307.14,333,306.63,334.22Z" transform="translate(-0.5 -0.98)"/><path class="cls-4" d="M302.61,259.75c4.58,1.06,8.56-4.06,9.57,1.15C310.88,261,303.18,261,302.61,259.75Z" transform="translate(-0.5 -0.98)"/><path class="cls-4" d="M316.8,296.46a10.11,10.11,0,0,1-5.52,1.71c-.59-3.32.46-2.89,3.35-3.42C312.11,296.43,312.82,297,316.8,296.46Z" transform="translate(-0.5 -0.98)"/><path class="cls-4" d="M304.93,455c-.49-2.36-.08-5-.59-7.31a5.41,5.41,0,0,1,3.3.85,2.79,2.79,0,0,1,2.42.3,10.63,10.63,0,0,1-.77,2.64,3.24,3.24,0,0,1-.3,1.29c.19.47,1,1,3.3,2.56-1.65,3.43-4.55,1.51-6.91-.31,0,0,0-.09.05-.11A4,4,0,0,1,304.93,455Z" transform="translate(-0.5 -0.98)"/><path class="cls-4" d="M308.68,436.76c.15.2,2,12.49,5.08,8.08C317.37,451.53,302.27,440.61,308.68,436.76Z" transform="translate(-0.5 -0.98)"/><path class="cls-4" d="M307.87,397.37c3.74,4,2.16-1.79,6-1.67a1.51,1.51,0,0,0-1.18,1.64c1.61-1,3.19-2.12,4.77-3.28.16,1.74-13.72,11.14-15.18,8.51C302.5,399.73,306.24,400.5,307.87,397.37Z" transform="translate(-0.5 -0.98)"/><path class="cls-4" d="M302.63,350.8c2.67-1.07,5.9-1.87,6.78,1C307.81,352.36,303,351.66,302.63,350.8Z" transform="translate(-0.5 -0.98)"/><path class="cls-4" d="M310.41,440.89c-.13,0,6.69-.79,7.74-.3C318.34,443.85,310.41,444.24,310.41,440.89Z" transform="translate(-0.5 -0.98)"/><path class="cls-4" d="M314.06,308.17c2.75.71,5.84,2,4.9,4.79C317.31,312.49,313.82,309.06,314.06,308.17Z" transform="translate(-0.5 -0.98)"/><path class="cls-4" d="M315,352a5.8,5.8,0,0,1-5.26.06C308.33,348.21,313.45,348.49,315,352Z" transform="translate(-0.5 -0.98)"/><path class="cls-4" d="M309.52,345.18c-.92-.39-4.14-4.51-4.1-5.24a27.2,27.2,0,0,0,5.58,1.58C311,342.47,309.94,344.24,309.52,345.18Z" transform="translate(-0.5 -0.98)"/><path class="cls-4" d="M304.81,437.29c4.09,2.68-2.29,1,1.84,3.88a10.13,10.13,0,0,1-5.12-2.7C302.35,435.76,303.43,435.35,304.81,437.29Z" transform="translate(-0.5 -0.98)"/><path class="cls-4" d="M316.69,289c2.18,4.14,8.7,3.68,5.45,8C321.24,296,316.11,290.19,316.69,289Z" transform="translate(-0.5 -0.98)"/><path class="cls-4" d="M325.59,356.59c.37,1,4.21,11.3,4.8,11.65C327.46,369.54,322.38,357.78,325.59,356.59Z" transform="translate(-0.5 -0.98)"/><path class="cls-4" d="M321.9,210c-1.18.88-1.83.88-1.95-.08-.32-1.41-.64-2.88-1-4.36,1.78-.43,7.07-2.08,7.89,0C323.77,206.09,321.37,207,321.9,210Z" transform="translate(-0.5 -0.98)"/><path class="cls-4" d="M324,118.51c-1.77,1.62-2.89,0-3.33-4.85.93,0,6-.34,4.75,2.13C324.53,117.55,321.47,114.22,324,118.51Z" transform="translate(-0.5 -0.98)"/><path class="cls-4" d="M341.68,164.52c1.7.2-5.1,3.88-6.06,4.58,0,.05.08,0,.07.07-.29.11-.25.05-.07-.07-.1-1.06-3.39.6-2.69-1.31q2.13-1.09,4.24-2.24a5.49,5.49,0,0,1,2.49-1.31c-.83.46-1.66.87-2.49,1.31a4.43,4.43,0,0,0-1.25,2.11C337.55,169.15,340.27,164.36,341.68,164.52Z" transform="translate(-0.5 -0.98)"/><path class="cls-4" d="M334,200.65c1.87-1.88,9.3-7.13,9.71-6.5C340.44,197.73,337.74,198.19,334,200.65Z" transform="translate(-0.5 -0.98)"/><path class="cls-4" d="M341,259.9c1.86-.47,4.5,3.8,2.55,5.07C336.71,271.67,338,256.71,341,259.9Z" transform="translate(-0.5 -0.98)"/><path class="cls-4" d="M372.67,279.71c1.11-12.39,12.7,2.27,5.52.88.34-1.22-1.83-3.33-2.57-3a8.4,8.4,0,0,0-1.92,2.12c.47,0,.93,0,1.4,0-.14.26-.81.47-1.67.65a8.29,8.29,0,0,0-.85,2c0-.71,0-1.29.06-1.9-5,.72-15.9.17-15.65-2.33,1.85-2.32,4.67.59,7.93-1.18.86,5.7,2.89-.25,6.15,2.05a1.67,1.67,0,0,0-2.05.74C370.24,279.76,371.45,279.73,372.67,279.71Z" transform="translate(-0.5 -0.98)"/><path class="cls-4" d="M367.06,185.58c2.2-.25,4.44-.48,6.63-.72C374.83,189.33,367.83,189.72,367.06,185.58Z" transform="translate(-0.5 -0.98)"/><path class="cls-4" d="M364.26,87.15c-.94-2.05-4.38.43-1.69-3.46,2.43,1.82,8.06,3.68,5.28,6.54-2.23-2.89-5.54,7.63-8.87,5.85C360,94.61,365,88.93,364.26,87.15Z" transform="translate(-0.5 -0.98)"/><path class="cls-4" d="M371.12,128.57c.08,2.61-.82,2.7-.89,5.57-1.49.47-6.07-3.48-6-4.25C364.86,129.14,369.67,128.44,371.12,128.57Z" transform="translate(-0.5 -0.98)"/><path class="cls-4" d="M370.16,118.68c.78-.59,5.58-.08,7,.43-.55,2.54-1.47,2.42-2.23,5.17C373.35,124.37,369.85,119.41,370.16,118.68Z" transform="translate(-0.5 -0.98)"/><path class="cls-4" d="M375.15,87.43c-1.07-2-4.34.65-1.88-3.35,2.53,1.68,8.24,3.26,5.6,6.28-2.42-2.76-5.16,7.88-8.57,6.23C371.23,95.08,376,89.16,375.15,87.43Z" transform="translate(-0.5 -0.98)"/><path class="cls-4" d="M387.93,196.85c1.4,1-6.33,1-7.5,1.12,0,0,.05,0,0,.08-.29,0-.23-.07,0-.08.44-1-3.27-1.1-1.77-2.44,1.61.05,3.23.05,4.84.06a5.66,5.66,0,0,1,2.77,0c-.93,0-1.84,0-2.77,0a4.46,4.46,0,0,0-2.13,1.26C382,199,386.72,196.05,387.93,196.85Z" transform="translate(-0.5 -0.98)"/><path class="cls-4" d="M395,219.88c-1.47,3.68-5.91,1.41-6.06-1.69-1.72,1.79-1.88,3.88-3,.75,1.15-.89,4.06-4.32,5.32-2.23a5.24,5.24,0,0,0-.92.44Q392.64,218.5,395,219.88Z" transform="translate(-0.5 -0.98)"/><path class="cls-4" d="M405.6,286.6c-1.7,2.43-3.45,1.51-5.28-2.83C402,281.43,403.77,282.38,405.6,286.6Z" transform="translate(-0.5 -0.98)"/><path class="cls-4" d="M398,251.07c.1-1.3-2.5-2.83-3.18-2.36a9.08,9.08,0,0,0-1.87,5.38C388.76,237.71,405.85,250.71,398,251.07Z" transform="translate(-0.5 -0.98)"/><path class="cls-4" d="M397.48,277.26c-3.31-.16-6.3-1.45-9.49-1.54,1.2-1.2,1.91-2.9,4.28-3C393.11,273.66,398.25,275.38,397.48,277.26Z" transform="translate(-0.5 -0.98)"/><path class="cls-4" d="M386.37,235.3c-.23-2.62.4-11.68,1.13-11.64C388.2,228.53,386.85,230.92,386.37,235.3Z" transform="translate(-0.5 -0.98)"/><path class="cls-4" d="M382.06,211.39s0,.07,0,.09c-.31,0-.24,0,0-.09.47-1-3.31-1-1.84-2.38,1.64,0,3.24,0,4.84-.06a5.53,5.53,0,0,1,2.78,0c-.92,0-1.85,0-2.78,0a4.87,4.87,0,0,0-2.11,1.31c.72,2.1,5.36-.92,6.58-.13C390.92,211.05,383.25,211.25,382.06,211.39Z" transform="translate(-0.5 -0.98)"/><path class="cls-4" d="M381,218.29c-.57,2.69-6.37,1-6.78-1.39C373.94,215.23,380.59,218.18,381,218.29Z" transform="translate(-0.5 -0.98)"/><path class="cls-4" d="M379.2,348.36c.24,1.08,2.43,11.82,3,12.27C379.11,361.45,375.83,349,379.2,348.36Z" transform="translate(-0.5 -0.98)"/><path class="cls-4" d="M376.29,283.35c.43-.87,2-2.6,3.12-1.13a9.85,9.85,0,0,1-.88,5.6C377.58,287.13,372.93,291.52,376.29,283.35Z" transform="translate(-0.5 -0.98)"/><path class="cls-4" d="M371.69,338.74c-7,6.47-5.21-8.43-2.34-5.16C371.2,333.17,373.68,337.5,371.69,338.74Z" transform="translate(-0.5 -0.98)"/><path class="cls-4" d="M357.77,249.44c4-1.51,3.71,3.86.07,5.52A6.07,6.07,0,0,1,357.77,249.44Z" transform="translate(-0.5 -0.98)"/><path class="cls-4" d="M363.91,221.2a5.9,5.9,0,0,1-4.65-2.93C360.2,214.11,364.5,217.25,363.91,221.2Z" transform="translate(-0.5 -0.98)"/><path class="cls-4" d="M357.06,206.88c-.55,1.8-3.72-4.46,2.65-2.28C359.62,206.18,358.79,207,357.06,206.88Z" transform="translate(-0.5 -0.98)"/><path class="cls-4" d="M357.5,334.92a9.86,9.86,0,0,1-2,5.31c-.8-.84-6.19,2.56-1.29-4.78C354.8,334.63,356.67,333.27,357.5,334.92Z" transform="translate(-0.5 -0.98)"/><path class="cls-4" d="M352.31,330.15c-3-1.46-5.22-3.78-8.16-5.14,1.59-.63,2.9-1.94,5.15-1.05C349.69,325.15,353.77,328.69,352.31,330.15Z" transform="translate(-0.5 -0.98)"/><path class="cls-4" d="M345.69,397.58c-4.8.75.21-6.69,1-5.69C347.9,392,345.73,397.34,345.69,397.58Z" transform="translate(-0.5 -0.98)"/><path class="cls-4" d="M346.19,378c-2.88,1.48-8.64-10-5.51-11.33C341.11,367.63,345.56,377.69,346.19,378Z" transform="translate(-0.5 -0.98)"/><path class="cls-4" d="M330.85,217.72c4,1.15,3.71,4.86,0,3.87A33.3,33.3,0,0,0,330.85,217.72Z" transform="translate(-0.5 -0.98)"/><path class="cls-4" d="M336.06,330.68c-2.39,9.26-9-4.22-4.81-3.05C332.6,326.31,337,328.57,336.06,330.68Z" transform="translate(-0.5 -0.98)"/><path class="cls-4" d="M338,339.33a1.61,1.61,0,0,0,.7,2c0-1.94,0-3.86,0-5.81,1.59.8,1.52,17.6-1.49,17.29-2.22-1.77.56-4.46-1.13-7.56C341.47,344.39,335.78,342.45,338,339.33Z" transform="translate(-0.5 -0.98)"/><path class="cls-4" d="M339.93,304a6,6,0,0,1-1.07-5.38C342.53,296.33,343.25,301.69,339.93,304Z" transform="translate(-0.5 -0.98)"/><path class="cls-4" d="M340.3,316.9c-1.15,1.2-5.76,2.89-6.45,2.26C335.7,317,338.19,314.75,340.3,316.9Z" transform="translate(-0.5 -0.98)"/><path class="cls-4" d="M334.41,213.1c-.66,1.46-1.69,1.88-3.27,1.23C330,215.82,329.16,208.83,334.41,213.1Z" transform="translate(-0.5 -0.98)"/><path class="cls-4" d="M329.58,274.51c-.23-1.26-.54-2.52-.89-3.75C332.84,270.88,333.47,274.51,329.58,274.51Z" transform="translate(-0.5 -0.98)"/><path class="cls-4" d="M347.49,370.32c-.53-2.8,3.28-3.09,3.95-6.59,4.76,2.85,1.62-2.31,5.3-3.23a1.53,1.53,0,0,0-.74,1.9c1.29-1.45,2.54-2.93,3.67-4.48C360.35,359.53,349.62,372.43,347.49,370.32Z" transform="translate(-0.5 -0.98)"/><path class="cls-4" d="M360.22,389.05a24.88,24.88,0,0,0,5.76.44,4.81,4.81,0,0,1,.71,1.87c.74-1.66,1.86-2.89,3.71-2.25a11.46,11.46,0,0,1-3.51,4.19c0,2.83-.83,6-2.44,6.86C361.53,399.28,358.63,392,360.22,389.05Z" transform="translate(-0.5 -0.98)"/><path class="cls-4" d="M364.7,352.16c1.1-1.34,1.67-3.07,4-3.37.87.83,5.55,1.92,5.63,3.65a2.36,2.36,0,0,1,2.46,3.48,2.46,2.46,0,0,1-1.24,1.72,40.28,40.28,0,0,1-1.85-4.43c.32-.06.53.08.81.09-.06-.25-.14-.49-.19-.75a1.05,1.05,0,0,1,0,.24C371,352.93,367.92,351.94,364.7,352.16Z" transform="translate(-0.5 -0.98)"/><path class="cls-4" d="M376.32,374.87c-2.06-1.77-4.21-4.14-2.16-6.16C375.3,369.83,376.92,374.21,376.32,374.87Z" transform="translate(-0.5 -0.98)"/><path class="cls-4" d="M375,425.62c-1.67-2.51,6.86-8.71,9.17-5.52C381.09,421.84,378.06,423.79,375,425.62Z" transform="translate(-0.5 -0.98)"/><path class="cls-4" d="M380.59,230.73a8.81,8.81,0,0,0-3.42,4.53c1-16.89,13.24.75,5.74-1.33C383.38,232.77,381.37,230.51,380.59,230.73Z" transform="translate(-0.5 -0.98)"/><path class="cls-4" d="M383.83,265.76c.45-1.61,5.26,3.75,5.58,4.06C387.8,272,383.2,268.09,383.83,265.76Z" transform="translate(-0.5 -0.98)"/><path class="cls-4" d="M407.51,398.22c.51,1.51-.17,6.15-1,6.47C405.51,402.13,404.75,399.05,407.51,398.22Z" transform="translate(-0.5 -0.98)"/><path class="cls-4" d="M395.48,102.89c-1.35-1.09-2.5-1-3.5.31C387.66,97.9,391.52,98.39,395.48,102.89Z" transform="translate(-0.5 -0.98)"/><path class="cls-4" d="M375.17,81.16c2-.56,2.67.17,1.91,2.11-2.77-.22-9.68,1.35-8.88-2.58C370.54,80.75,372.84,80.9,375.17,81.16Z" transform="translate(-0.5 -0.98)"/><path class="cls-4" d="M362.62,57.5c0-1.73-.85-2.54-2.49-2.49C361.47,48.28,363.58,51.54,362.62,57.5Z" transform="translate(-0.5 -0.98)"/><path class="cls-4" d="M374.26,169c-3.41-2.56-6.48-2.73-9.5-2.92.42,2.85,2.73,4.42-.86,3.66a34.35,34.35,0,0,1-.45-3.77,12.83,12.83,0,0,1-9.13-4.13,3.06,3.06,0,0,1-.16-3.94C358.27,159.47,375.66,165.5,374.26,169Z" transform="translate(-0.5 -0.98)"/><path class="cls-4" d="M373,194.57c-8.7-2.7-12.3,4.34-21.2,0a3,3,0,0,1-1.46-3.66C354.73,190.94,373.16,190.75,373,194.57Z" transform="translate(-0.5 -0.98)"/><path class="cls-4" d="M352.9,254.24c.82-.62,3-1.27,3.27.51a10,10,0,0,1-3.56,4.46C352.15,258.13,345.93,259.6,352.9,254.24Z" transform="translate(-0.5 -0.98)"/><path class="cls-4" d="M342.41,249c0-1.67,6,2.28,6.43,2.53C347.83,254.11,342.41,251.46,342.41,249Z" transform="translate(-0.5 -0.98)"/><path class="cls-4" d="M320.07,50.15c-1.65-3-2.27-1.59-1.92-5.35C319.41,44.18,323.69,48.8,320.07,50.15Z" transform="translate(-0.5 -0.98)"/><path class="cls-4" d="M324.06,281.62c-.42.06-1.55.2-2.87.29-.6,1.91-2.49,6.71-2.56,6.67a5.67,5.67,0,0,1-.8-4.18,4.14,4.14,0,0,1,1.44-2.38c-2.25.09-4.49,0-4.84-.59C319.06,282.05,322.48,276.51,324.06,281.62Z" transform="translate(-0.5 -0.98)"/><path class="cls-4" d="M316,288.1c-.1,1.29-5.7-1-6-1C309.27,282.05,317.08,287.29,316,288.1Z" transform="translate(-0.5 -0.98)"/><path class="cls-4" d="M304.83,241.56c3,.28,2.18,4.21,5.45,5.9-4.18,3.92,1.87,2.26,1.76,6.24a1.58,1.58,0,0,0-1.71-1.23c1.08,1.69,2.21,3.35,3.43,5C311.93,257.63,302.09,243.1,304.83,241.56Z" transform="translate(-0.5 -0.98)"/><path class="cls-4" d="M308.92,231.71c.34-1.23.67-2.48.93-3.76C313.49,230,312.4,233.48,308.92,231.71Z" transform="translate(-0.5 -0.98)"/><path class="cls-4" d="M306.35,236.67c-3,1-5.26,2.16-4.39,5-1.07,1-1.7,1.07-2,.17-.44-1.38-.93-2.8-1.45-4.23C300.26,237.05,305.28,234.72,306.35,236.67Z" transform="translate(-0.5 -0.98)"/><path class="cls-4" d="M298.28,153.72c-.61-.15-4.08-7-4.94-8,1.35-1.24,6.37.79,7.42,2.35C294.85,152.67,302,150.31,298.28,153.72Z" transform="translate(-0.5 -0.98)"/><path class="cls-4" d="M296.54,210c.85.3,1.67.52,2.49.87a5.26,5.26,0,0,1-3,4.58C295.31,213.79,296,211.48,296.54,210Z" transform="translate(-0.5 -0.98)"/><path class="cls-4" d="M301.78,106.38a17,17,0,0,0-1.77-.1c-1,2.13,1.07,8.93-1.94,9.48-.15-1.57.07-7.46-1-9.55a9.79,9.79,0,0,1-2.49-.38c-.75.48-1.23.8-1.48-1.21a1.68,1.68,0,0,1-.08-.65s0,0,0-.1h0a2.24,2.24,0,0,1,0-.63c.79.1,1.56.23,2.34.33,2.26-.37,4.52-.55,5.37.71C302,104.28,302.46,104.86,301.78,106.38Z" transform="translate(-0.5 -0.98)"/><path class="cls-4" d="M294.57,224c.18,3.07-2.18,4.61-1.7,8.21C290.82,232.77,288.66,223.52,294.57,224Z" transform="translate(-0.5 -0.98)"/><path class="cls-4" d="M291.87,256.3a78,78,0,0,1-1.44,7.77,5.7,5.7,0,0,1-1.54-4A4,4,0,0,1,291.87,256.3Z" transform="translate(-0.5 -0.98)"/><path class="cls-4" d="M252.59,457.16c-7.39,9.54-5.61-2.51-3-4.48.13-.19.26-.41.41-.59-1.9-1.62-4.14-2.42-1.5-4.7,2,.84,3.09,1.84,3.37,3,1.11-.54,2,.11,1.93,3.1.09.06.2.05.29.12,2.54,2.38,2.87,6.62,6.51,2.07,4.17,6-4.78,2.84-8.05.53l-.16.11C252.46,456.59,252.52,456.81,252.59,457.16Z" transform="translate(-0.5 -0.98)"/><path class="cls-4" d="M199.78,464.14a4.51,4.51,0,0,1-2.85-.61c.11.08.52-.08,1-.33a44.14,44.14,0,0,1-3.83-2.52c2.46-2.58,3.27,2.48,5.69,1.17a2.28,2.28,0,0,0,0-2.3c.53.58,1.2,1,1.77,1.56,3.28-2,7.17-4.43,7.93-4.16-2,.28-3.94,3.5-6.33,5.56.35.28.62.61,1,.87C204.34,465.72,202.15,465.27,199.78,464.14Z" transform="translate(-0.5 -0.98)"/><path class="cls-4" d="M184.05,422.7a9,9,0,0,0,.3,1.12,4.21,4.21,0,0,1-.66-.85c-.18.1-.33.29-.52.38.07-.17.18-.4.3-.68-1.32-2-3.54-6.2-4-7.28,3.7-1.11,3.93,3.15,4.45,6.38,1.13-2.42,3.15-6.22,4.8-5.58a6.56,6.56,0,0,1-2,6.27c-1.29-.07-1.57-.78-.78-2.21A5.31,5.31,0,0,1,184.05,422.7Z" transform="translate(-0.5 -0.98)"/><path class="cls-4" d="M161.33,434c.19-1.61.9-8.55,3.16-8.44a6.72,6.72,0,0,1,0,6.59c-1.3.3-1.75-.3-1.46-1.92A5,5,0,0,1,161.33,434Z" transform="translate(-0.5 -0.98)"/><path class="cls-4" d="M132.25,432.6c-6,4-.55,6.34-4.09,9.73-2.24-2.34-.81-4.36-5.08-2.63,1.31-.69,6.42-7,7.55-10.3-1.23-2.1-5.36-8.76-5.34-7.77-.14-5.44-2.92-2.1-5.22-4.71-1.39-.56-.27-2.54,1.07-3.88-.71-1.94-.71-5,.64-5.06-.23,1.14,1.56.79,2.54,1.38.11-.36.21-.71.32-1.08a8.26,8.26,0,0,0,0,1.4,1.91,1.91,0,0,1,.11,1.79c.38,4.87,1.65,13.15,5.14,8.35.44.11.88,2.12,1.15,4.34a6,6,0,0,1,1.92-.36c-.71-3.66-.22-7,2.84-3.51-1.26,1.49-1.62,2.59-1.51,3.64.5.13.9.32,1,.64-.19.2-.34.47-.53.7a17.08,17.08,0,0,0,3.12,3.59c-1.49,2.32-3.08.47-4.09-2.25A9.66,9.66,0,0,0,132.25,432.6Z" transform="translate(-0.5 -0.98)"/><path class="cls-4" d="M103.76,340a9.79,9.79,0,0,1-2.51-1.21c-1.29,1-2.41,1.16-2.64-.58a1.58,1.58,0,0,1,.22-.8c-6.42-3.77-16.9-10.52-17-11.62-1-9.06,18.64,5.77,16.81,6.09-.88.17-6.53-3.53-6.58-1.71,1.93,2.53,5,3.9,7.68,5.67,1.19-2,2.71-4.34,1.18-4.63-1-1.17-.21-2.13,2.28-2.86,5.36-.52,2.13,6.44-1,9.63A8.12,8.12,0,0,1,103.76,340Z" transform="translate(-0.5 -0.98)"/><path class="cls-4" d="M88.88,384.76a14.07,14.07,0,0,1-6.78,4.09c-1-2.47,8.06-6,8.49-5.05a51.21,51.21,0,0,0-7.34,3.28A16.77,16.77,0,0,0,88.88,384.76Z" transform="translate(-0.5 -0.98)"/><path class="cls-4" d="M35.28,209.65c-1.3-2.21-2.1-2.05-2.33.53-1-2.83-6.71-12-3.48-13,3.64,0-.23,7.82,5.45,6.59A15.18,15.18,0,0,0,35.28,209.65Z" transform="translate(-0.5 -0.98)"/><path class="cls-4" d="M26.23,209.69c-2.36-4.84-.21-2.78,1.62-5.9.56,1.17,1.15,2.35,1.75,3.53A3.11,3.11,0,0,0,26.23,209.69Z" transform="translate(-0.5 -0.98)"/><path class="cls-4" d="M33.78,250.22c2.59-.27,4.13-4.15,3.64,2,1.91,2-6.71,1.2-8.25,0-.11,2-.44,7.07-1.12,6.78C28.33,251.48,27.27,250.88,33.78,250.22Z" transform="translate(-0.5 -0.98)"/><path class="cls-4" d="M52.32,320.66c-5.61-2.53,3.15-3-1-5.17,1.17.39,1.87,0,2.08-1,2.25.43,3,1.71,5.54,2.05C60.35,319.59,49.22,316.93,52.32,320.66Z" transform="translate(-0.5 -0.98)"/><path class="cls-4" d="M53.05,299.94c-.15-.86,3.42-6.58,1.57-6.6-4,3.23-4.74,9.56-9.56,11.92-.43-.57,12.16-22.06,13.73-22.25C67.85,281.77,53.43,301.8,53.05,299.94Z" transform="translate(-0.5 -0.98)"/><path class="cls-4" d="M47.93,330.33c1.3,1.42,2.36,1,3.93,4.64C49.89,336.66,48,330.36,47.93,330.33Z" transform="translate(-0.5 -0.98)"/><path class="cls-4" d="M76.31,372.6c2.27,6.82.42,1.76,4.32,3.53-.48-.22-.66,6.41-3.65,5.54-1.74-.51-11.32.28-9.38,1.39-1.27,1-2.28.88-3-.48-.21-1.66,7.36-2.65,8.27-2.94C79,377.93,71.56,374.53,76.31,372.6Z" transform="translate(-0.5 -0.98)"/><path class="cls-4" d="M95.86,74.75c.84-.25,1.68-.4,2.54-.59,0-.17,0-.19,0,0h0c.06,1.19.9,10,2.79,5.52.37,2.15,1.56,11.65-1.75,10.84-2.08-.48-.71-8.86-2.26-10.38-1.77-1.68-1.59,5.71-1.63,4.84,0-1.48-2.39-7.4-1.83-8C95.17,75.48,97.09,79.57,95.86,74.75Z" transform="translate(-0.5 -0.98)"/><path class="cls-4" d="M87.32,279.4a14.55,14.55,0,0,0-3.5,4.66c.39-2.55-.29-2.91-2.13-1.11,1.06-2.83,2.7-13.49,5.78-12.11C90.23,273.23,82.21,276.63,87.32,279.4Z" transform="translate(-0.5 -0.98)"/><path class="cls-4" d="M85.39,169.67a28.37,28.37,0,0,0,2.92-5.56c.47.65-2,8.33-1.25,8.18a1.83,1.83,0,0,1,1.23-1.75c-2.78,7.77-3.68-.51-3.38-3.08-.33-1.31-4.51,5.38-5,5.75C79.07,173.9,90,156.79,85.39,169.67Z" transform="translate(-0.5 -0.98)"/><path class="cls-4" d="M81.93,148.93c1.6-1.68,2.23,1.93,3,2.34,1.94-.24,5.09-1.63,4.91,3.08C88.55,153.72,80,150.92,81.93,148.93Z" transform="translate(-0.5 -0.98)"/><path class="cls-4" d="M84.74,230.36a5.73,5.73,0,0,1,3.06,2.21c2,.11,2.34-2.77,4-1.7C101.07,249.36,78.25,231.39,84.74,230.36Z" transform="translate(-0.5 -0.98)"/><path class="cls-4" d="M94.93,198.28a6,6,0,0,1,.25,3.82c1.22,1.63,3.67,0,3.89,1.92C90.73,223,90,194,94.93,198.28Z" transform="translate(-0.5 -0.98)"/><path class="cls-4" d="M95.59,172.84c-.6.33-1.22.66-1.88,1-.8,1.87-1.63,4.23-1.84,4.51s.39-1.88,1.29-4.26c-2.22,1-4.56,2-6,3.47.35-.51,5.26-5.48,1.35-5.1,1-.43,5.45-4.24,5.83-1.49l.1-.07c.81-1.76,1.58-2.82,1.87-1.78,1-1.75-1.61-2.29.84-4.15,1.87,2.5,1.84,4.24.93,5.61,0,2.43,0,5.36.42,5.17a1.79,1.79,0,0,1,.79-2C98.61,180.83,96.37,176,95.59,172.84Z" transform="translate(-0.5 -0.98)"/><path class="cls-4" d="M95.33,155.63c-1.43,0-10.36,1-9.43-1.67.75-2.14,2.81.85,3.67.89C91.25,153.8,93.52,151.26,95.33,155.63Z" transform="translate(-0.5 -0.98)"/><path class="cls-4" d="M84.66,138.61c-4,2.86-6.08,2.64-6.2-.6,4,.45,7.64-4.32,11.35-.6C88.11,137.84,86.38,138.22,84.66,138.61Z" transform="translate(-0.5 -0.98)"/><path class="cls-4" d="M80.67,215.65c3.08,20.43-13.07-3.68-6.6-2.67a5.83,5.83,0,0,1,2.24,3.07C78.21,216.78,79.4,214.1,80.67,215.65Z" transform="translate(-0.5 -0.98)"/><path class="cls-4" d="M72.74,109c-2.9-4.57,2.24-7.48,5-3.15C74.7,107.51,73.6,110.08,72.74,109Z" transform="translate(-0.5 -0.98)"/><path class="cls-4" d="M73.6,263.25c-1.48.18-1.88-1-1.18-3.47,3.81-7.32,11.53,11.73,5.86,9.18C77.16,268.48,75.28,261.47,73.6,263.25Z" transform="translate(-0.5 -0.98)"/><path class="cls-4" d="M75,267.9c-4.44,1.41-3.09,11-5.72-2.19C71.5,266.87,74.19,265.61,75,267.9Z" transform="translate(-0.5 -0.98)"/><path class="cls-4" d="M100.77,127.94c3.55,1.8,8.67-1.39,10.85,3.39-1.73-.25-3.47-.44-5.24-.68C101.58,131.94,99.74,131,100.77,127.94Z" transform="translate(-0.5 -0.98)"/><path class="cls-4" d="M102.88,107.64c.6-.6,1.26-1.19,1.9-1.82-.09-.14-.09-.17,0,0l0,0c.67,1,5.92,8.12,5.22,3.31,1.46,1.64,7.34,9.15,4.1,10.17-2,.68-5.19-7.24-7.28-7.71-2.41-.54,1.55,5.71,1.08,5-.79-1.29-5.88-5.16-5.68-6C102.7,108.68,106.46,111.18,102.88,107.64Z" transform="translate(-0.5 -0.98)"/><path class="cls-4" d="M110.81,294.45c1.61,3.07,1.58,6.36-.11,5.9C109,297.3,109.08,293.91,110.81,294.45Z" transform="translate(-0.5 -0.98)"/><path class="cls-4" d="M112.24,324c4.27,2.38,7.21,2.48,4.63,7.32-2.06,3.17-8.32-2.22-8.41-4.78C111.23,326.26,109.51,329.78,112.24,324Z" transform="translate(-0.5 -0.98)"/><path class="cls-4" d="M127.61,345.8c1,4.7-7.43,3-10.76,5C115.32,347,124.62,346.88,127.61,345.8Z" transform="translate(-0.5 -0.98)"/><path class="cls-4" d="M130.61,274.88c-1.85-1.58-5.54.77-6.47-3.18C127,267,133,270.63,130.61,274.88Z" transform="translate(-0.5 -0.98)"/><path class="cls-4" d="M131.06,310.94c-.87-.84-.16-8.08-2.33-7-1.48-.4-1.46-1.6.09-3.65C135,294.78,135.48,315.36,131.06,310.94Z" transform="translate(-0.5 -0.98)"/><path class="cls-4" d="M134.64,305.65c4.89-2.52,8,3.78,3.76,6.13C137.67,309.49,133.3,309.49,134.64,305.65Z" transform="translate(-0.5 -0.98)"/><path class="cls-4" d="M139.91,345.56c-1.93,4-.53,5.18,3.52,7.54-1.35-4.23-1.31-9.66,2.3-5.55-3,3.62-1.69,5,2.1,8.55-1.51,2.34-3.1.47-4.13-2.24C141,358.9,132.39,340.25,139.91,345.56Z" transform="translate(-0.5 -0.98)"/><path class="cls-4" d="M153.06,324.72c-.6,3.74-8.5,1.3-9.6-1,2.42-1.34,2.25,2.61,2.44-3.85C150.74,320.38,153.48,319.26,153.06,324.72Z" transform="translate(-0.5 -0.98)"/><path class="cls-4" d="M146,258.07c.36-3.5,2.27-6.26,3.39-4.85C149,256.69,147.19,259.4,146,258.07Z" transform="translate(-0.5 -0.98)"/><path class="cls-4" d="M155,331.34c-.17-3.16,5.2-3.07,5.89,0-1.35.08-2.66,0-4,0a2.67,2.67,0,0,1,.94.55c-2.62,2.33,7.53,4.94,6,8.19-1.44-.88-7.1-5.44-8.76-4.62-1.89,1,.62,4.15-3.19,1.78,1.19-1.79,2.33-5.26,4-5.9C155.62,331.33,155.33,331.36,155,331.34Z" transform="translate(-0.5 -0.98)"/><path class="cls-4" d="M154.87,351.73c-1.05,3.64-8.59.27-9.44-2.13,2.57-1.09,1.94,2.81,2.9-3.56,1.43.33,2.61.51,3.63.72,1.61-2.51,3.31-6.79,5.81-4.36-2.77,2.16,7.28,5.31,5.58,8.48-1.41-.93-6.83-5.79-8.53-5.05a1.71,1.71,0,0,0-.91,1.62C154.94,348.08,155.37,349.2,154.87,351.73Z" transform="translate(-0.5 -0.98)"/><path class="cls-4" d="M151.11,333.6c-.22,2.64,1.3,9.24-2.45,8.48.05-2.23.2-4.43.45-6.67C148.56,333.51,149.26,332.88,151.11,333.6Z" transform="translate(-0.5 -0.98)"/><path class="cls-4" d="M144.38,241.51c-2.65-2.32-3.79-5.5-2-5.61C145,238.2,146.15,241.33,144.38,241.51Z" transform="translate(-0.5 -0.98)"/><path class="cls-4" d="M145.68,411c0,2,4.66-1.28,3.48,3.84C147.54,422.1,143.17,411.68,145.68,411Z" transform="translate(-0.5 -0.98)"/><path class="cls-4" d="M182.13,409c-1.54.15-7.37,0-9.13,1.12a9.23,9.23,0,0,1-.34,2.17c.45.72.76,1.18-1.18,1.43a2.08,2.08,0,0,1-.59.07h-.11v0a1.74,1.74,0,0,1-.6,0c.08-.75.22-1.52.31-2.27-.34-2.13-.52-4.26.68-5.09,0-1.13.55-1.62,2-1a16.11,16.11,0,0,0-.09,1.69C175.1,408.14,181.6,406.15,182.13,409Z" transform="translate(-0.5 -0.98)"/><path class="cls-4" d="M184.77,384.26c1.52,1.7,0,2.77-4.63,3.19-.07-.89-.34-5.74,2-4.52C183.84,383.77,180.67,386.68,184.77,384.26Z" transform="translate(-0.5 -0.98)"/><path class="cls-4" d="M189,407c-3.39,3.49-6.61-4.56-10.07-6.23C181.18,397.46,186.45,405.1,189,407Z" transform="translate(-0.5 -0.98)"/><path class="cls-4" d="M180.09,378.18c-.78-3.9,8.35-2.25,11.51-2.74C191.68,380.3,183.72,377,180.09,378.18Z" transform="translate(-0.5 -0.98)"/><path class="cls-4" d="M182.4,313.14c1.38-2.82,11.52,1.61,9.85,5.38C189.06,316.64,185.66,315,182.4,313.14Z" transform="translate(-0.5 -0.98)"/><path class="cls-4" d="M182.91,327.77c-.49,2.61.37,9.3-3.35,8.19.34-2.2.75-4.39,1.16-6.58C180.38,327.42,181.12,326.89,182.91,327.77Z" transform="translate(-0.5 -0.98)"/><path class="cls-4" d="M177.52,267.67c-2.07-2.9-.73-7.56,3.53-5.88C181.12,267,176.73,260,177.52,267.67Z" transform="translate(-0.5 -0.98)"/><path class="cls-4" d="M166,360.5c.66-3.1,5.79-1.58,5.63,1.53C169.76,361.57,167.89,361.06,166,360.5Z" transform="translate(-0.5 -0.98)"/><path class="cls-4" d="M171.08,419.16c4.53-1.4,3.82,5.46,5,8.4C175.37,427.25,171.72,420.55,171.08,419.16Z" transform="translate(-0.5 -0.98)"/><path class="cls-4" d="M167,274.18c.89-3.09,5.93-1.31,5.6,1.82C170.62,275.42,168.84,274.84,167,274.18Z" transform="translate(-0.5 -0.98)"/><path class="cls-4" d="M169.35,341.7a45.61,45.61,0,0,0-4.72,6.51,19.81,19.81,0,0,0,3.7-4.85,14.37,14.37,0,0,1-3.84,6.93C162.36,348.68,168.45,341,169.35,341.7Z" transform="translate(-0.5 -0.98)"/><path class="cls-4" d="M195.69,456a14.63,14.63,0,0,1-4.51-3.79,31.91,31.91,0,0,1,6.14,5c-2.56,1.52-7.87-2.37-9.25-4C189.77,450.43,192.69,455.47,195.69,456Z" transform="translate(-0.5 -0.98)"/><path class="cls-4" d="M272.45,247.8c.67,4,3.19,6.67,4.85,10.38-1.95,2.28-3.93-3-2.4,3-.87.41-1.75.83-2.64,1.23a4.91,4.91,0,0,1-.28-.5,4.41,4.41,0,0,1-.49,2.87c-1.85-.13-2.73,1-2.56,3.43-.86-1.58.73-6.7.95-7.68a2.66,2.66,0,0,1,1.75.73C269.45,256.53,273.71,252.62,272.45,247.8Z" transform="translate(-0.5 -0.98)"/><path class="cls-4" d="M277.05,141.56c.6-3.67-7.86-9.8-2.69-14.69C273.67,127.47,278,140.41,277.05,141.56Z" transform="translate(-0.5 -0.98)"/><path class="cls-4" d="M278.15,213.19c-1.88,1.12-6.22-7.33-.38-8.37C278.75,207.74,276.79,209.84,278.15,213.19Z" transform="translate(-0.5 -0.98)"/><path class="cls-4" d="M283.63,286a10,10,0,0,1-5.62-1.16c1-3.15,1.76-2.27,4.53-1.34C279.55,283.71,279.91,284.53,283.63,286Z" transform="translate(-0.5 -0.98)"/><path class="cls-4" d="M282.8,346.18c0,.08-.05.12-.06.2,0,.33-.12.5,0,.89a2.08,2.08,0,0,1-.13-.42,5.65,5.65,0,0,1-.7,2,24.58,24.58,0,0,0,3.39.92c0,1-1,2.76-1.42,3.72-.62-.25-2.15-2-3.17-3.49a6.09,6.09,0,0,1-.69.65c-3.8-.85-1.17-4.64,2.37-4.43-.46-2.07,0-5.8.06-6.7,2.24-.09,3,1.25,2.3,4-1.53.14-2,1.17-2,2.7Z" transform="translate(-0.5 -0.98)"/><path class="cls-4" d="M286.22,459.51c3.2,2.05,3.69,4.15,1.5,6.19C286.36,463,282.54,461.61,286.22,459.51Z" transform="translate(-0.5 -0.98)"/><path class="cls-4" d="M280.7,436.22c-3.07-1-6-2.08-9-3.22,3.71-.75,8,.27,11.59.88C281.51,433.77,280.61,434.51,280.7,436.22Z" transform="translate(-0.5 -0.98)"/><path class="cls-4" d="M274.51,326.19c-1.54-1-2.59-6.22-3-7.19,2.09-.87,3.24.11,3.56,2.94C273.38,322.75,273.17,324.14,274.51,326.19Z" transform="translate(-0.5 -0.98)"/><path class="cls-4" d="M276.17,332.62c-.28,1.64,1.3,6.7.07,8.12-.09.07-2.75-4-4.4-4.39C272,335.46,274.32,332.13,276.17,332.62Z" transform="translate(-0.5 -0.98)"/><path class="cls-4" d="M277.28,411c-1.57.68-3.76,0-5.22-.5.29-.8.52-1.59.84-2.38A5,5,0,0,1,277.28,411Z" transform="translate(-0.5 -0.98)"/><path class="cls-4" d="M274.43,355c-.29,2-.25,11.78-2.08,11.07.07-.39,1.61-8-1.58-6.05-.8-.32-1.06-1-.77-1.92a42.16,42.16,0,0,0,4.43-3.1c0-.06,0-.18,0-.21C274.65,354.74,274.58,354.84,274.43,355Z" transform="translate(-0.5 -0.98)"/><path class="cls-4" d="M270.44,370.61c0,1.63,2.62,6.25,1.69,7.87-.05.12-3.46-3.33-5.18-3.37C266.92,374.21,268.5,370.46,270.44,370.61Z" transform="translate(-0.5 -0.98)"/><path class="cls-4" d="M268.56,441.58c-.38-1.3-.79-2.57-1.26-3.86,1.12,1.18,1.55,1,1.33-.62.86,2.21,1.7-2,2.75-1C273.85,439.31,272.89,441.15,268.56,441.58Z" transform="translate(-0.5 -0.98)"/><path class="cls-4" d="M272.35,445.46c-1.19,1.25-3.44,1.47-5,1.6-.05-.85-.11-1.69-.19-2.52A5,5,0,0,1,272.35,445.46Z" transform="translate(-0.5 -0.98)"/><path class="cls-4" d="M277.3,296.58a27.35,27.35,0,0,0,5.79-.18c.3.92-.16,2.92-.29,3.94C281.79,300.24,277.52,297.25,277.3,296.58Z" transform="translate(-0.5 -0.98)"/><path class="cls-4" d="M278.33,322c.79-1.38,1.61-2.76,2.42-4.13a.56.56,0,0,0-.05-.08s.08,0,.11,0l.74-1.26a2.67,2.67,0,0,1,1.73,1.78c2.75,2,5.68,7.32,3.21,9.11-1.25-2.21-2.6-4.36-3.93-6.52A3.42,3.42,0,0,1,278.33,322Z" transform="translate(-0.5 -0.98)"/><path class="cls-4" d="M274.51,265c2.2-2.72,4.43,1.07,6.39,2.93C278.15,271.33,277.67,266.59,274.51,265Z" transform="translate(-0.5 -0.98)"/><path class="cls-4" d="M274.67,195.89c.56,2.26.2,4-1.18,5.39-1.27-1.28-1.41-3.7-1.49-5.28Z" transform="translate(-0.5 -0.98)"/><path class="cls-4" d="M271.34,304.2c-2.08-3.09-4.42-6.07-6.63-9.07C267.18,293.16,274.47,301.46,271.34,304.2Z" transform="translate(-0.5 -0.98)"/><path class="cls-4" d="M271,320.05a9.87,9.87,0,0,1-5.46,1.8c-.7-3.29.4-2.86,3.31-3.43C266.35,320.1,267.09,320.63,271,320.05Z" transform="translate(-0.5 -0.98)"/><path class="cls-4" d="M265.61,346.49c-.13-.84.26-1.42,1.24-1.64-.32-.11,1.75.84,3.38,1.49,1.88-.88,3.77,1.84,5.48,3.41-2.37,3-3.09-.2-5.34-2.12-3,1.66-8.69,5-9,3.39C261.67,350.93,269,348.12,265.61,346.49Z" transform="translate(-0.5 -0.98)"/><path class="cls-4" d="M262.46,384.92c0,.21-3.78,12,.94,9.48C263.63,402,255,385.51,262.46,384.92Z" transform="translate(-0.5 -0.98)"/><path class="cls-4" d="M267.06,408.34q-2.67.59-1.87,3c-3.22-.11-6.37-.28-9.58-.54C259,409,263.4,408.77,267.06,408.34Z" transform="translate(-0.5 -0.98)"/><path class="cls-4" d="M263.79,432.5c-1.23,1.21-3.54,1.35-5.06,1.41,0-.86-.05-1.67-.1-2.53A5,5,0,0,1,263.79,432.5Z" transform="translate(-0.5 -0.98)"/><path class="cls-4" d="M255.93,245.34c-.87.66-2.73-1.3-3.46,0-2.24-3.89,1.81-3.9.16-6.58C253.66,238.3,257,244.41,255.93,245.34Z" transform="translate(-0.5 -0.98)"/><path class="cls-4" d="M233.44,131.26c-.07.11.1.54.35,1.08a46.63,46.63,0,0,1,2.64-4c2.72,2.58-2.6,3.43-1.23,6a2.34,2.34,0,0,0,2.42,0c-.61.56-1.08,1.25-1.63,1.86,2.08,3.43,4.63,7.52,4.35,8.31-.3-2.11-3.66-4.13-5.83-6.64-.29.37-.64.67-.92,1-2.46.15-2-2.16-.79-4.63A4.8,4.8,0,0,1,233.44,131.26Z" transform="translate(-0.5 -0.98)"/><path class="cls-4" d="M237.52,114.06c1.58.78,1.5,2.89,2.19,5.24.24.94-6.17-.54-5.57-2.76C234.48,115.16,238,116.21,237.52,114.06Z" transform="translate(-0.5 -0.98)"/><path class="cls-4" d="M235.27,443.86c3.72-.87,5.55.19,5.48,3.26C237.82,446.17,234.22,448,235.27,443.86Z" transform="translate(-0.5 -0.98)"/><path class="cls-4" d="M242.37,244.38c2.48-.51,5.2-.08,7.67-.62a5.55,5.55,0,0,1-.9,3.46,3,3,0,0,1-.31,2.55A12.19,12.19,0,0,1,246,249a3.33,3.33,0,0,1-1.33-.32c-.49.21-1,1.08-2.67,3.45-3.6-1.72-1.61-4.75.33-7.21,0,0,.08,0,.11,0A3.8,3.8,0,0,1,242.37,244.38Z" transform="translate(-0.5 -0.98)"/><path class="cls-4" d="M246.33,377.86c2.91.41,6.62,3.34,1.65,3.27C239.55,380.36,246.48,378.76,246.33,377.86Z" transform="translate(-0.5 -0.98)"/><path class="cls-4" d="M248.79,343.17c-.24-2.1-.45-4.24-.69-6.34C252.39,335.75,252.75,342.43,248.79,343.17Z" transform="translate(-0.5 -0.98)"/><path class="cls-4" d="M247.54,295.31c4-1.86,5.55,4.65,1.83,6.07C248.74,299.37,248.14,297.33,247.54,295.31Z" transform="translate(-0.5 -0.98)"/><path class="cls-4" d="M248.5,282.35c-3.94-.75-2.73-4.2-1.52-7.06.17.62,8.81-2.91,7.51,3.13C249.27,278.82,250.83,276.15,248.5,282.35Z" transform="translate(-0.5 -0.98)"/><path class="cls-4" d="M252.37,210.27c-1.31-1.26-1.54-3.62-1.68-5.27.92-.05,1.78-.13,2.64-.19A5.23,5.23,0,0,1,252.37,210.27Z" transform="translate(-0.5 -0.98)"/><path class="cls-4" d="M250.79,217.44c-5.13,3.94-10.22-1.85-4.94-5.87C247.71,213.29,248.87,215.8,250.79,217.44Z" transform="translate(-0.5 -0.98)"/><path class="cls-4" d="M243.92,235.64c-.85.75-2.85-1.07-3.48.27-2.55-3.72,1.54-4-.32-6.59C241.12,228.8,244.9,234.64,243.92,235.64Z" transform="translate(-0.5 -0.98)"/><path class="cls-4" d="M236.38,105.35c.45-1.35,4,0,3.6-2.21,1.52.9,1.27,3,1.76,5.37C242,109.51,235.66,107.54,236.38,105.35Z" transform="translate(-0.5 -0.98)"/><path class="cls-4" d="M234.24,91.48a1.81,1.81,0,0,1-.59,1.14c-.49.9-.92,1.58-1.2,1.66a3.29,3.29,0,0,0,.79-1.31c-2.37,1.29-7.84-.32-8.14-4a39.89,39.89,0,0,1,8.63,1.75c.55-3.89.44-9.23,5.54-9.76C238.63,81.06,236.13,87.6,234.24,91.48Z" transform="translate(-0.5 -0.98)"/><path class="cls-4" d="M219.5,438.31c-.11-.92-.68-5.74,1.73-4.65,1.77.75-1.24,3.83,2.7,1.22C225.57,436.48,224.09,437.61,219.5,438.31Z" transform="translate(-0.5 -0.98)"/><path class="cls-4" d="M213.28,421c2.53-1.13,9-.79,12.37-.4C224.26,425.28,212.16,425.26,213.28,421Z" transform="translate(-0.5 -0.98)"/><path class="cls-4" d="M199.71,435.28c2.55-1.15,9-.87,12.38-.44C210.73,439.53,198.63,439.55,199.71,435.28Z" transform="translate(-0.5 -0.98)"/><path class="cls-4" d="M208.49,446c-1.08,7.39-6.18-2.7-3.76-3.54C204.88,444.39,209.28,440.88,208.49,446Z" transform="translate(-0.5 -0.98)"/><path class="cls-4" d="M216.16,286.11c-1.32-4.32,2.64-3.38,1.69-6.37,1.1-.18,2.9,6.52,1.68,7.14C218.54,287.35,217.17,285,216.16,286.11Z" transform="translate(-0.5 -0.98)"/><path class="cls-4" d="M218.29,361.91c-1.55.35-3.17.63-4.77.95C213.09,360.11,217.6,358.85,218.29,361.91Z" transform="translate(-0.5 -0.98)"/><path class="cls-4" d="M207.33,236.2c-1.73,0-2.2-.32-1.52-1.06.4-1.09.79-2.19,1.18-3.28,3.25,2.13,4.55-.54,5,3,2.66,1,4.4.61,7.56,1.87C215.29,244.07,210.1,229,207.33,236.2Z" transform="translate(-0.5 -0.98)"/><path class="cls-4" d="M207.63,319.21c1.77,2.32,2.51,6.9-1.06,3.52C201,316.36,207.1,319.9,207.63,319.21Z" transform="translate(-0.5 -0.98)"/><path class="cls-4" d="M210.18,386c-.42,1.58.79,6.73-.56,8-.09.09-2.44-4.13-4.05-4.65C205.77,388.46,208.36,385.26,210.18,386Z" transform="translate(-0.5 -0.98)"/><path class="cls-4" d="M210.37,345.76c-2.48-4.2-.89-6.44,3-8.39C214.06,338.74,211.4,343,210.37,345.76Z" transform="translate(-0.5 -0.98)"/><path class="cls-4" d="M217.57,412.47c2.23-1.69,8.64-2.67,12-3C229.19,414.35,217.35,416.87,217.57,412.47Z" transform="translate(-0.5 -0.98)"/><path class="cls-4" d="M230.9,414.76c.52,1.43-2.67,5.27-4.07,7.93C225,418.17,226.82,416.13,230.9,414.76Z" transform="translate(-0.5 -0.98)"/><path class="cls-4" d="M225.77,343.59c-8.42-.83-1.47-2.36-1.6-3.29C227.08,340.79,230.73,343.66,225.77,343.59Z" transform="translate(-0.5 -0.98)"/><path class="cls-4" d="M221.27,183.56c1.06,2.36,1.14,5.09,2.28,7.37C217.29,192.58,214.81,185.25,221.27,183.56Z" transform="translate(-0.5 -0.98)"/><path class="cls-4" d="M217.84,225.7c-5-1.62-2.49-3.53-7.05,1.31a2.68,2.68,0,0,1-1.41-3.14l-.17,0a0,0,0,0,0,0,0c-.08,0-.06,0,0,0-1-3.14.23-2.54,1.49-2.45.46-.53,1-1.05,1.48-1.55C212.1,220.53,221.45,220.67,217.84,225.7Z" transform="translate(-0.5 -0.98)"/><path class="cls-4" d="M209.47,227.05c.18.09.23.25-.09.59.19-.19.1-.38.09-.59-.79-.32-5.12,1.36-5.68,1.64l0,0c-.1,0-.09,0,0,0-2.11-4.45,1.81-1.21,2.66-3.66C207,225,209.38,226,209.47,227.05Z" transform="translate(-0.5 -0.98)"/><path class="cls-4" d="M205.75,418.15a6.48,6.48,0,0,1-2,6.23c-1.33,0-1.57-.77-.75-2.22a5.26,5.26,0,0,1-2.83,3.1C200.85,423.74,203.63,417.31,205.75,418.15Z" transform="translate(-0.5 -0.98)"/><path class="cls-4" d="M206.76,429.11c-3.49-.58-9.35,7.49-14,2.56C193.31,432.31,205.65,428.24,206.76,429.11Z" transform="translate(-0.5 -0.98)"/><path class="cls-4" d="M194.41,390.67c-3.08-3.81-1.83-6.23,1.7-8.72C197,383.18,195,387.81,194.41,390.67Z" transform="translate(-0.5 -0.98)"/><path class="cls-4" d="M207.64,450.17c2.88-3.81,6.29,2.22,8.88,3.95C215.78,454.29,209,450.91,207.64,450.17Z" transform="translate(-0.5 -0.98)"/><path class="cls-4" d="M241.2,391.69c-2.08-1.83.62-5.63,3.11-3.72C243.31,389.23,242.27,390.48,241.2,391.69Z" transform="translate(-0.5 -0.98)"/><path class="cls-4" d="M248.93,391.54l-4.8.85C243.72,389.62,248.25,388.44,248.93,391.54Z" transform="translate(-0.5 -0.98)"/><path class="cls-4" d="M254,443.17c3.65-.84,8,.06,11.61.56-1.78,0-2.68.71-2.55,2.44Q258.44,444.75,254,443.17Z" transform="translate(-0.5 -0.98)"/><path class="cls-4" d="M273.6,451.69c1.64-1.76,4-2.88,5.62-4.73C283,451.88,277.45,456.73,273.6,451.69Z" transform="translate(-0.5 -0.98)"/><path class="cls-4" d="M282.8,439.3c-.06.1,5-4.57,6.13-4.75C291,437.05,284.77,442,282.8,439.3Z" transform="translate(-0.5 -0.98)"/><path class="cls-4" d="M283.9,338.24c-1.12-4.95,7-.36,6.06.58C289.94,340.15,284.2,338.24,283.9,338.24Z" transform="translate(-0.5 -0.98)"/><path class="cls-4" d="M283.52,295.88c.87-3.43,4.46-.9,7-.05C289.49,300.1,287.05,296,283.52,295.88Z" transform="translate(-0.5 -0.98)"/><path class="cls-4" d="M283.31,211.94c.29,2,.53,4,.49,4a5.74,5.74,0,0,1-1.74-1.49,2.39,2.39,0,0,1-.77-1.4,3.61,3.61,0,0,1-.22-.39,4.14,4.14,0,0,1,.27-3c.48-1.88,1.75-3.47,4.32-2.82C285.46,209,284.16,210.23,283.31,211.94Z" transform="translate(-0.5 -0.98)"/><path class="cls-4" d="M275.56,98.73c-4.66,1.29-6.28-16.6-6.73-18.7.68.6,1.33,1.18,2,1.76.35,4.39-.23,12.5,5.78,11.09C277,96.37,274.69,94.06,275.56,98.73Z" transform="translate(-0.5 -0.98)"/><path class="cls-4" d="M266.8,97.9c1.75,4.08,3.74,12,9,8.71,1.53,3.19-1.45,1.75.91,5.92-4,2.69-11.24-13.77-12.34-15.63Z" transform="translate(-0.5 -0.98)"/><path class="cls-4" d="M265.19,105.51c1.63.63,1.74,2.77,2.64,5,.33,1-6.18,0-5.82-2.23C262.23,106.89,265.87,107.61,265.19,105.51Z" transform="translate(-0.5 -0.98)"/><path class="cls-4" d="M264.73,156.72c-.79,1.85-4-1.31-1.27,2.82-1.69,1.71-2.87.17-3.59-4.64C260.83,154.8,265.86,154.19,264.73,156.72Z" transform="translate(-0.5 -0.98)"/><path class="cls-4" d="M263.83,193.82c-2,3.55-1.63,7.21-2.63,11.17-2.93.53-1.22-4.81-3.8.9-.9-.24-1.84-.5-2.84-.71C255.14,198.8,261.74,198.72,263.83,193.82Z" transform="translate(-0.5 -0.98)"/><path class="cls-4" d="M252.85,202.12c-3,.09-.41-4.94-3.86.29-.93-.39-1.77-.78-2.72-1.15,1.6-6.2,8.09-5.19,11-9.7C254.74,194.72,254.5,198.38,252.85,202.12Z" transform="translate(-0.5 -0.98)"/><path class="cls-4" d="M240.7,57.2c-3.08-1.45,1.88-2.93,3.09-5.1-4.78,2.94-.74-4.61-.47-5.31a50,50,0,0,1-5.56,8.4c-2.68-1.75,2.6-8.75,4.67-11.48,3,1.6,2.53,2.68,3.79,5.15,1-4.8,2.39-6.24,4.33-4.19C247.71,46.87,244.19,56.7,240.7,57.2Z" transform="translate(-0.5 -0.98)"/><path class="cls-4" d="M224.34,163.62c0,2.42-2,2.11-5.81-.9.59-.68,3.87-4.62,4.8-2C224,162.6,219.51,162.53,224.34,163.62Z" transform="translate(-0.5 -0.98)"/><path class="cls-4" d="M212.89,87.81c1-.89,6.76-4.6,8.14-4.81C224.09,85.82,216.38,91,212.89,87.81Z" transform="translate(-0.5 -0.98)"/><path class="cls-4" d="M213.61,144.31a89.58,89.58,0,0,1-.33-11.35C218,133.86,221,145.07,213.61,144.31Z" transform="translate(-0.5 -0.98)"/><path class="cls-4" d="M217.52,179.2c-.37.29-8.2-6-9.84-6.67,1-1.52-9.76-10.56-10.37-13.74C204.14,165.32,211,172.1,217.52,179.2Z" transform="translate(-0.5 -0.98)"/><path class="cls-4" d="M196.06,65.13c3.7-.37.82,4.15,3.61,4.87a2.33,2.33,0,0,0,1.63-1.81A30.19,30.19,0,0,0,202,74c.16.1.37.18.44.33-2.79,2.18-4.56,1-6.85,4-1.92-2.2,1-4,3.59-4.54C197.37,71.21,196.13,65.43,196.06,65.13Z" transform="translate(-0.5 -0.98)"/><path class="cls-4" d="M206.63,90.35c1.3,3.92-8,4.71-9.48.22C198.45,90.27,205.33,89.86,206.63,90.35Z" transform="translate(-0.5 -0.98)"/><path class="cls-4" d="M202.78,139.42c.16-1.29.14-3.87.59-4.39,1.31-.29,2.6-.61,3.92-.89.44,2.8-5.57,3.31-2,6.7.65.63,1.08-2.17,1.46-2.09C209.28,139.44,201.58,148.69,202.78,139.42Z" transform="translate(-0.5 -0.98)"/><path class="cls-4" d="M206.52,156.54c-.43-1.22-1.64-3.52-1.45-4.17,1-.85,2.05-1.73,3.07-2.59,1.67,2.3-3.46,5.53,1.3,6.84.86.25,0-2.43.35-2.49C212.33,153.57,209.72,165.37,206.52,156.54Z" transform="translate(-0.5 -0.98)"/><path class="cls-4" d="M202.73,65.06c-2.69-3.75,6.41-5.44,7.19-3.35C206.91,63.64,205.28,62.27,202.73,65.06Z" transform="translate(-0.5 -0.98)"/><path class="cls-4" d="M194.73,105.85a2.36,2.36,0,0,0,1-.21c2.11-4,2.61-.82,4.37-3.88,2.06.64,2,1.81-.23,3.54.32-1.79-2.78,4.31-3.55,6,.22-.73,3.11-6.76.4-5.87a28.66,28.66,0,0,0-1.26,5.21c-4.38,2.75-2.5-10.16-2.43-10.58C196.63,101,192.35,104.25,194.73,105.85Z" transform="translate(-0.5 -0.98)"/><path class="cls-4" d="M191.74,68.2c0-3.34-5.25-16.24-1.7-16.47C190.66,55.58,197,67.09,191.74,68.2Z" transform="translate(-0.5 -0.98)"/><path class="cls-4" d="M188.82,79.65c-3.56-.38-4-2.44-7.72-1.86C181.32,73.2,189.51,77.48,188.82,79.65Z" transform="translate(-0.5 -0.98)"/><path class="cls-4" d="M189.32,227.55a8,8,0,0,0-.87.76C188.67,228.13,189,227.8,189.32,227.55Z" transform="translate(-0.5 -0.98)"/><path class="cls-4" d="M138.07,146.85c.24-.07.26-.29.34-.47-.55-.66-5.11-1.35-5.74-1.39,0,0,0,0,0,0s-.09,0,0,0c.36-4.92,2.15-.16,4.08-1.86.51.2,2.13,2.28,1.66,3.25C138.55,146.53,138.53,146.7,138.07,146.85Z" transform="translate(-0.5 -0.98)"/><path class="cls-4" d="M124.52,334a45.91,45.91,0,0,0-5.49,5.82,17.82,17.82,0,0,0,4.29-4.33,14.08,14.08,0,0,1-4.71,6.43C116.73,340,123.74,333.14,124.52,334Z" transform="translate(-0.5 -0.98)"/><path class="cls-4" d="M119.82,212.81c0,.09.19.07.21.18-.52,1.18-8,1.94-7.37.89.2-.42,1.85-1.26,3.53-1.73-.73-.17-1.34-.28-2.3-.5,2-1.6,1.87-4.56,4.29-4.35C117.79,210.8,123.08,213.16,119.82,212.81Z" transform="translate(-0.5 -0.98)"/><path class="cls-4" d="M113.86,187.75c0-.94,4-6.7,5.85-4.61C119.89,184.44,113.9,188.93,113.86,187.75Z" transform="translate(-0.5 -0.98)"/><path class="cls-4" d="M119.38,148.36c-1.22-1.3-2.41-2.55-3.64-3.83-4.5-2.1-5.33-3.94-2.58-5.69C114.75,142.52,120.72,143.26,119.38,148.36Z" transform="translate(-0.5 -0.98)"/><path class="cls-4" d="M66.68,260.79c-3.82-3.94,1.35-8.69,4.82-5.36C69.46,256.82,70.77,261,66.68,260.79Z" transform="translate(-0.5 -0.98)"/><path class="cls-4" d="M68.44,273.88c-4.56-1-8.18,8-3.87-4.74C65.94,271.27,68.89,271.49,68.44,273.88Z" transform="translate(-0.5 -0.98)"/><path class="cls-4" d="M75.59,320.12c-.9-.08-5.22-5.27-5.82-3.54,1.85,4.82,7.62,7.49,8.37,12.8-.68.23-17.17-18.41-16.85-20C62.91,300.43,77.45,320.33,75.59,320.12Z" transform="translate(-0.5 -0.98)"/><path class="cls-4" d="M50.16,289.17c1.84,2.79-9.56,1.94-5.91,5.15-5.92-1.58,2.62-3.42-1.79-5,1.22.21,1.86-.27,1.89-1.31C46.63,288.15,47.65,289.29,50.16,289.17Z" transform="translate(-0.5 -0.98)"/><path class="cls-4" d="M43.41,263.25c.64,1.12,1.25,2.27,1.86,3.43C43,271.49,37.91,258.64,43.41,263.25Z" transform="translate(-0.5 -0.98)"/><path class="cls-4" d="M37.53,186.81c-.85.11.67-2.07,2.48-4.37a4.31,4.31,0,0,1-1.25,1.12c-1.7.47,5-10.24,5.11-10.43,1.26,0-1,5.32-3.12,8.39,1.72-2.12,3.44-4.11,3.47-4.18C45.87,177.62,39.9,186.22,37.53,186.81Z" transform="translate(-0.5 -0.98)"/><path class="cls-4" d="M28.1,227.6c-2.74,3.86-4.62,4.47-5.7,1.77C25.09,225.54,27,224.94,28.1,227.6Z" transform="translate(-0.5 -0.98)"/><path class="cls-4" d="M290,410.25c-.57-2.8.24-3.68,2.33-2.52,4.88.48-1.57,1.94,3.42,2.57A9.56,9.56,0,0,1,290,410.25Z" transform="translate(-0.5 -0.98)"/><path class="cls-4" d="M353.38,433.69c-1.88-2.35,6-9.32,8.65-6.33C359.09,429.35,356.23,431.57,353.38,433.69Z" transform="translate(-0.5 -0.98)"/><path class="cls-4" d="M386.85,339.71c-1.8,1-2.42,2.71-2,5.08-4.42,0,2.58-10,.26-11.11,2.36,1.13,1.52,1.79,4.95,1.37A31,31,0,0,0,389,343.7a7.68,7.68,0,0,1,.26,1,1.74,1.74,0,0,1-.26-1A7.48,7.48,0,0,0,386.85,339.71Z" transform="translate(-0.5 -0.98)"/><path class="cls-4" d="M406.4,316.76c2.55-1.09,9.32.46,11.21,2.34C417.15,321,405.56,317.94,406.4,316.76Z" transform="translate(-0.5 -0.98)"/><path class="cls-4" d="M415.51,262.41c1-.93,7-6.31,8.33-5.71C419.5,259,420,265.82,415.51,262.41Z" transform="translate(-0.5 -0.98)"/><path class="cls-4" d="M425.17,347.08c.5-.92,1.86-1.83,4.1-2.78,2.44,1.74,1.47,3.58-2.88,5.49a2.73,2.73,0,0,1-.83,1.35c-.87-1.31-1.74-2.65-2.52-4.11A2.77,2.77,0,0,1,425.17,347.08Z" transform="translate(-0.5 -0.98)"/><path class="cls-4" d="M434.25,356.2c2-1.93,8.93-2.82,11.36-1.7C445.86,356.51,433.88,357.62,434.25,356.2Z" transform="translate(-0.5 -0.98)"/><path class="cls-4" d="M439,270.21c1.31-.25,2.63-.57,3.92-.93C442.77,273.61,439,274.27,439,270.21Z" transform="translate(-0.5 -0.98)"/><path class="cls-4" d="M432.93,219.71c-3.31-5.27,6.55-4.7,6.53-4.12a39,39,0,0,0,6.61-3.7C447.53,214.88,435.58,217.87,432.93,219.71Z" transform="translate(-0.5 -0.98)"/><path class="cls-4" d="M431.53,264.43c-.22-1.37-1-9.4.2-10.08C431.08,259.17,436.88,262.77,431.53,264.43Z" transform="translate(-0.5 -0.98)"/><path class="cls-4" d="M432.54,135.6c.34,2.86-5.93,2.76-5.93,0C431.19,133.79,429,136.65,432.54,135.6Z" transform="translate(-0.5 -0.98)"/><path class="cls-4" d="M457.77,180.61a34.72,34.72,0,0,0,4.94-5.73c2.39,2.34-7.79,9.24-9.67,11.89C448.1,182.9,457.56,180.07,457.77,180.61Z" transform="translate(-0.5 -0.98)"/><path class="cls-4" d="M451.59,210.18c5.58-3.73,9.92,1.6,15.36.17-4.21.7-7,3.36-10.87,5.09-2.39-2,3.13-4.13-3.21-2.53C452.47,212,452,211.1,451.59,210.18Z" transform="translate(-0.5 -0.98)"/><path class="cls-4" d="M454.43,242c-1.11,4.78,4.24,9-1.19,10C453.14,250.61,453.13,242.55,454.43,242Z" transform="translate(-0.5 -0.98)"/><path class="cls-4" d="M358.52,113.38c-.17,2.61-1,2.61-1.34,5.46-1.51.34-5.77-3.94-5.64-4.68C352.28,113.44,357.09,113.14,358.52,113.38Z" transform="translate(-0.5 -0.98)"/><path class="cls-4" d="M351.62,152c-3.34,3.53-6.06,3.94-9.81,6.29C343.72,156.44,351.23,151.4,351.62,152Z" transform="translate(-0.5 -0.98)"/><path class="cls-4" d="M350.09,105c-5.45,3.44-12.62-2.07-7.65-5q1.26,2.07,2.6,4.14c1.24-.38,2.5-.77,3.78-1.18C347.09,103.65,349.27,103.05,350.09,105Z" transform="translate(-0.5 -0.98)"/><path class="cls-4" d="M344.32,45.64c.39.36-1.28,1.74-1.31,2.11a2.91,2.91,0,0,0,3.14-.38c-.53,1.12-11.88,5-12.61,4.28C334.8,51.26,342.32,43.91,344.32,45.64Z" transform="translate(-0.5 -0.98)"/><path class="cls-4" d="M310.17,83.42a10.66,10.66,0,0,0-2.33,1.42,2.16,2.16,0,0,0-.39,1.35c.38.4.91.77.13,1.51,0,.15,0,.22.06.37-.16,0-.29-.09-.42-.09a4.53,4.53,0,0,1-.65.49,2.22,2.22,0,0,1-.37-.69c-3.59-2.2-5.13-16.47-5.57-18.33.69.6,1.36,1.15,2.06,1.71.23,2.43.22,6,1.15,8.43C305.67,79.19,309.54,81.77,310.17,83.42Z" transform="translate(-0.5 -0.98)"/><path class="cls-4" d="M161.08,104c6.35-2.22-.53-2.93,5-4.89,3.19,2.29,1.35,3,6.88,2.57,2.49-4.17-9.21-3.83.24-7.45,2.17,1.87-1.66,5.31,3.23,5.05.72,4,2.2,5.07-2.54,6.33-1.75-6-4.34-.09-8.15.44C170.35,103.41,159.43,104.44,161.08,104Z" transform="translate(-0.5 -0.98)"/><path class="cls-4" d="M126.93,56.66c3.29,1.05.06,2.25,2.9,3.4.93.26,6.66-1.15,6.5-1.83-.47-1.93-3.3-3.42-4.6-4.75,2.24-1.43,9.2.63,11.64.9-2.78,2-2.73,4.23.06,6.63C139.16,61.73,124.23,63.57,126.93,56.66Z" transform="translate(-0.5 -0.98)"/><path class="cls-4" d="M221.34,21.31l1.17-.13c3.18,2.51,7.51,5.18,4.8,7.61.1.25-1-1.4-2.34-3.23,1.95,3.92,9.16,12.5,5.12,14.86,0,.24,0,.43-.06.72,1,3.59,9.86,7.26-.88,6.68-4.72-.33-11.82,5.48-14-1.14a7.4,7.4,0,0,0,2.4-1.23c-4.67-.79-12.32,3.83-13.61-2.92,6.18-1.37,1.07-2.81,4.72-6.64,2.15,4,1.83,1.64,4.72,1,.46,2.18,2.68,4.77,4.57,6.18a4.3,4.3,0,0,1,1-3.58c.17.24.22.26.36.44,0-.34.11-.68.17-1a2.05,2.05,0,0,1,.38-1.61,6.83,6.83,0,0,0-.38,1.61,5.59,5.59,0,0,0,1.08,2.34c.92.6,1.18-.7,3.17-1.42.89,2.4,4,5,6.16,5.93.17.07.12-2.76.18-4.67a2.63,2.63,0,0,1,0-.69c-.07,0-.08.12-.17.16-.69-3.21-8.36-14.41-5.33-15.62A20.12,20.12,0,0,0,221.34,21.31Z" transform="translate(-0.5 -0.98)"/><path class="cls-4" d="M142.94,39.88c.83-.42,1.66-.83,2.5-1.23A4.08,4.08,0,0,1,142.94,39.88Z" transform="translate(-0.5 -0.98)"/><path class="cls-4" d="M264.12,470.08l-1,.08c-1-3.18-1-7.06,2.56-7.28A38.35,38.35,0,0,0,264.12,470.08Z" transform="translate(-0.5 -0.98)"/><path class="cls-4" d="M340.9,450.12c-1.13.52-2.27,1-3.41,1.52a15.89,15.89,0,0,1-3.05-1c.6-.15-2.78-8.42,3-7.16.39,5-2.17,3.48,3.76,5.71A5,5,0,0,1,340.9,450.12Z" transform="translate(-0.5 -0.98)"/><path class="cls-4" d="M395.47,92.11l2.22,2a20.48,20.48,0,0,1-.28,2.39c0-1.73-.83-2.59-2.45-2.53C395.13,93.24,395.3,92.62,395.47,92.11Z" transform="translate(-0.5 -0.98)"/><path class="cls-4" d="M248.54,23.32c2.45,0,4.9.09,7.34.2-.07.87-.15,1.74-.24,2.59a13,13,0,0,0,4.7,6.62c.15.12.68-2.67,1.14-4.54a2,2,0,0,1,.49-1.61,7.5,7.5,0,0,0-.49,1.61c.3,3.74,8.19,9.06-2.22,6.35-4.57-1.26-12.69,3.05-13.51-3.85a7,7,0,0,0,2.65-.79A19.12,19.12,0,0,1,248.54,23.32Z" transform="translate(-0.5 -0.98)"/><path class="cls-4" d="M388,124.83c.84-2.71,1.92-3.1,3.24-1.13,4.08,2.82-2.26,1,1.77,4A9.87,9.87,0,0,1,388,124.83Z" transform="translate(-0.5 -0.98)"/><path class="cls-4" d="M364.55,139.27c-.49-2.36-.08-5-.59-7.32a5.39,5.39,0,0,1,3.3.86,2.78,2.78,0,0,1,2.42.29,10.63,10.63,0,0,1-.77,2.64,3.29,3.29,0,0,1-.3,1.3c.19.47,1,1,3.3,2.55-1.65,3.44-4.55,1.51-6.91-.3,0,0,0-.1.05-.11C364.87,139.19,364.74,139.26,364.55,139.27Z" transform="translate(-0.5 -0.98)"/><path class="cls-4" d="M368.3,121c.15.19,2,12.49,5.08,8.07C377,135.8,361.89,124.87,368.3,121Z" transform="translate(-0.5 -0.98)"/><path class="cls-4" d="M370,125.15c-.13,0,6.69-.79,7.74-.3C378,128.12,370,128.51,370,125.15Z" transform="translate(-0.5 -0.98)"/><path class="cls-4" d="M364.43,121.56c4.09,2.67-2.29,1,1.84,3.87a10.13,10.13,0,0,1-5.12-2.7C362,120,363.05,119.61,364.43,121.56Z" transform="translate(-0.5 -0.98)"/><path class="cls-4" d="M312.21,141.42c-7.39,9.55-5.61-2.5-3-4.48.13-.19.26-.41.41-.59-1.9-1.61-4.14-2.42-1.49-4.69,2,.83,3.08,1.83,3.36,3,1.11-.55,2,.1,1.94,3.09.08.06.19.06.28.13,2.54,2.37,2.87,6.61,6.51,2.06,4.17,6-4.77,2.84-8.05.54l-.16.1C312.08,140.86,312.14,141.07,312.21,141.42Z" transform="translate(-0.5 -0.98)"/><path class="cls-4" d="M259.41,148.41a4.43,4.43,0,0,1-2.85-.62c.1.08.51-.07,1-.33a41.68,41.68,0,0,1-3.83-2.52c2.46-2.58,3.27,2.49,5.69,1.18a2.27,2.27,0,0,0,0-2.31c.54.58,1.2,1,1.77,1.56,3.28-2,7.17-4.43,7.93-4.16-2,.28-3.94,3.5-6.33,5.56.35.28.62.61,1,.87C264,150,261.77,149.53,259.41,148.41Z" transform="translate(-0.5 -0.98)"/><path class="cls-4" d="M255.31,140.31a14.66,14.66,0,0,1-4.51-3.8,31.59,31.59,0,0,1,6.14,5c-2.56,1.51-7.87-2.38-9.25-4C249.39,134.7,252.31,139.74,255.31,140.31Z" transform="translate(-0.5 -0.98)"/><path class="cls-4" d="M345.84,143.77c3.2,2,3.69,4.15,1.5,6.2C346,147.21,342.16,145.87,345.84,143.77Z" transform="translate(-0.5 -0.98)"/><path class="cls-4" d="M340.32,120.49c-3.07-1-6-2.09-9-3.23,3.71-.75,8,.28,11.59.88C341.13,118,340.23,118.78,340.32,120.49Z" transform="translate(-0.5 -0.98)"/><path class="cls-4" d="M328.18,125.84c-.38-1.29-.79-2.57-1.25-3.86,1.11,1.18,1.54,1,1.32-.62.87,2.21,1.7-2,2.75-1C333.47,123.57,332.52,125.42,328.18,125.84Z" transform="translate(-0.5 -0.98)"/><path class="cls-4" d="M332,129.72c-1.19,1.26-3.44,1.47-5,1.6,0-.85-.12-1.69-.2-2.51A5,5,0,0,1,332,129.72Z" transform="translate(-0.5 -0.98)"/><path class="cls-4" d="M323.41,109.57c-1.23,1.2-3.54,1.34-5.06,1.41,0-.87-.05-1.68-.1-2.54C320.4,107.91,322.08,108.24,323.41,109.57Z" transform="translate(-0.5 -0.98)"/><path class="cls-4" d="M294.89,128.13c3.72-.88,5.55.18,5.48,3.25C297.44,130.43,293.84,132.23,294.89,128.13Z" transform="translate(-0.5 -0.98)"/><path class="cls-4" d="M279.12,122.58c-.11-.93-.68-5.75,1.73-4.66,1.77.76-1.24,3.83,2.7,1.22C285.19,120.75,283.71,121.87,279.12,122.58Z" transform="translate(-0.5 -0.98)"/><path class="cls-4" d="M259.33,119.54c2.55-1.14,9-.86,12.39-.44C270.35,123.79,258.25,123.82,259.33,119.54Z" transform="translate(-0.5 -0.98)"/><path class="cls-4" d="M268.12,130.28c-1.09,7.38-6.19-2.7-3.77-3.55C264.5,128.66,268.9,125.14,268.12,130.28Z" transform="translate(-0.5 -0.98)"/><path class="cls-4" d="M266.38,106.17c-3.49-.58-9.35,7.49-14,2.56C252.93,109.38,265.28,105.31,266.38,106.17Z" transform="translate(-0.5 -0.98)"/><path class="cls-4" d="M267.26,134.43c2.88-3.81,6.29,2.22,8.88,4C275.4,138.56,268.59,135.17,267.26,134.43Z" transform="translate(-0.5 -0.98)"/><path class="cls-4" d="M313.62,127.44c3.65-.85,8,0,11.61.56-1.77,0-2.68.7-2.55,2.43Q318.06,129,313.62,127.44Z" transform="translate(-0.5 -0.98)"/><path class="cls-4" d="M333.22,136c1.64-1.76,4-2.88,5.62-4.73C342.59,136.14,337.07,141,333.22,136Z" transform="translate(-0.5 -0.98)"/><path class="cls-4" d="M342.42,123.56c-.06.1,5-4.56,6.13-4.75C350.6,121.31,344.39,126.31,342.42,123.56Z" transform="translate(-0.5 -0.98)"/><path class="cls-4" d="M413,118c-1.88-2.35,6-9.31,8.65-6.33C418.71,113.61,415.86,115.84,413,118Z" transform="translate(-0.5 -0.98)"/><path class="cls-4" d="M323.74,154.34l-1,.09c-1-3.19-1-7.07,2.56-7.28A38.82,38.82,0,0,0,323.74,154.34Z" transform="translate(-0.5 -0.98)"/><path class="cls-4" d="M400.52,134.39l-3.41,1.51a15.19,15.19,0,0,1-3.05-1c.6-.16-2.78-8.43,3-7.17.39,5-2.17,3.48,3.76,5.71A5.35,5.35,0,0,1,400.52,134.39Z" transform="translate(-0.5 -0.98)"/><path class="cls-4" d="M237.55,145.43c.85-2.71,1.93-3.1,3.25-1.12,4.07,2.81-2.26,1,1.77,3.95A10,10,0,0,1,237.55,145.43Z" transform="translate(-0.5 -0.98)"/><path class="cls-4" d="M214.07,159.87c-.49-2.36-.08-5-.59-7.32a5.48,5.48,0,0,1,3.3.86,2.79,2.79,0,0,1,2.42.3,10.77,10.77,0,0,1-.77,2.64,3.24,3.24,0,0,1-.3,1.29c.19.47,1,1,3.3,2.55-1.65,3.44-4.55,1.52-6.91-.3,0,0,0-.09,0-.11C214.39,159.8,214.26,159.86,214.07,159.87Z" transform="translate(-0.5 -0.98)"/><path class="cls-4" d="M217.82,141.63c.15.19,2,12.49,5.08,8.08C226.51,156.4,211.41,145.48,217.82,141.63Z" transform="translate(-0.5 -0.98)"/><path class="cls-4" d="M219.55,145.76c-.13,0,6.69-.79,7.74-.3C227.49,148.72,219.55,149.11,219.55,145.76Z" transform="translate(-0.5 -0.98)"/><path class="cls-4" d="M214,142.16c4.09,2.68-2.29,1,1.84,3.88a10.13,10.13,0,0,1-5.12-2.7C211.49,140.63,212.57,140.22,214,142.16Z" transform="translate(-0.5 -0.98)"/><path class="cls-4" d="M161.73,162c-7.39,9.54-5.61-2.51-3-4.48.13-.19.26-.41.41-.59-1.9-1.62-4.14-2.42-1.49-4.7,2,.84,3.08,1.84,3.36,3,1.11-.54,2,.11,1.93,3.1.09.06.2,0,.29.12,2.54,2.38,2.87,6.62,6.51,2.06,4.17,6-4.78,2.85-8.05.54l-.16.11C161.6,161.46,161.66,161.67,161.73,162Z" transform="translate(-0.5 -0.98)"/><path class="cls-4" d="M108.93,169a4.53,4.53,0,0,1-2.86-.61c.11.07.52-.08,1-.33a44.14,44.14,0,0,1-3.83-2.52c2.46-2.58,3.27,2.48,5.69,1.17a2.26,2.26,0,0,0,0-2.3c.53.58,1.2,1,1.77,1.56,3.28-2,7.17-4.43,7.93-4.16-2,.28-3.94,3.49-6.33,5.56.35.28.62.61,1,.87C113.48,170.59,111.29,170.13,108.93,169Z" transform="translate(-0.5 -0.98)"/><path class="cls-4" d="M104.83,160.91a14.63,14.63,0,0,1-4.51-3.79,31.54,31.54,0,0,1,6.14,5c-2.56,1.52-7.87-2.37-9.25-4C98.91,155.3,101.83,160.34,104.83,160.91Z" transform="translate(-0.5 -0.98)"/><path class="cls-4" d="M195.36,164.38c3.2,2.05,3.69,4.15,1.5,6.19C195.5,167.82,191.68,166.48,195.36,164.38Z" transform="translate(-0.5 -0.98)"/><path class="cls-4" d="M189.84,141.09c-3.07-1-6-2.08-9-3.22,3.71-.75,8,.27,11.59.88C190.65,138.64,189.75,139.38,189.84,141.09Z" transform="translate(-0.5 -0.98)"/><path class="cls-4" d="M177.7,146.45c-.38-1.3-.79-2.58-1.25-3.86,1.11,1.18,1.54,1,1.32-.62.86,2.21,1.7-2,2.75-1C183,144.18,182,146,177.7,146.45Z" transform="translate(-0.5 -0.98)"/><path class="cls-4" d="M181.49,150.33c-1.19,1.25-3.44,1.47-5,1.6-.06-.85-.12-1.69-.2-2.52A5,5,0,0,1,181.49,150.33Z" transform="translate(-0.5 -0.98)"/><path class="cls-4" d="M172.93,130.17c-1.23,1.21-3.54,1.35-5.06,1.41,0-.86-.05-1.67-.1-2.54A5,5,0,0,1,172.93,130.17Z" transform="translate(-0.5 -0.98)"/><path class="cls-4" d="M144.41,148.73c3.72-.87,5.55.18,5.48,3.25C147,151,143.36,152.84,144.41,148.73Z" transform="translate(-0.5 -0.98)"/><path class="cls-4" d="M128.64,143.18c-.11-.93-.68-5.74,1.73-4.65,1.77.75-1.24,3.83,2.7,1.22C134.71,141.35,133.23,142.48,128.64,143.18Z" transform="translate(-0.5 -0.98)"/><path class="cls-4" d="M108.85,140.15c2.55-1.15,9-.87,12.39-.44C119.87,144.4,107.77,144.42,108.85,140.15Z" transform="translate(-0.5 -0.98)"/><path class="cls-4" d="M117.63,150.88c-1.08,7.39-6.18-2.7-3.76-3.54C114,149.26,118.42,145.75,117.63,150.88Z" transform="translate(-0.5 -0.98)"/><path class="cls-4" d="M115.9,126.77c-3.49-.58-9.35,7.5-14,2.57C102.45,130,114.79,125.91,115.9,126.77Z" transform="translate(-0.5 -0.98)"/><path class="cls-4" d="M116.78,155c2.88-3.81,6.29,2.22,8.88,4C124.92,159.16,118.1,155.78,116.78,155Z" transform="translate(-0.5 -0.98)"/><path class="cls-4" d="M163.14,148c3.65-.85,8,.06,11.61.56-1.77,0-2.68.71-2.55,2.44Q167.58,149.62,163.14,148Z" transform="translate(-0.5 -0.98)"/><path class="cls-4" d="M182.74,156.55c1.64-1.75,4-2.87,5.62-4.72C192.11,156.75,186.59,161.6,182.74,156.55Z" transform="translate(-0.5 -0.98)"/><path class="cls-4" d="M191.94,144.17c-.06.1,5-4.57,6.13-4.75C200.12,141.92,193.91,146.91,191.94,144.17Z" transform="translate(-0.5 -0.98)"/><path class="cls-4" d="M262.52,138.55c-1.88-2.34,6-9.31,8.65-6.32C268.23,134.22,265.38,136.44,262.52,138.55Z" transform="translate(-0.5 -0.98)"/><path class="cls-4" d="M173.26,174.94l-1,.09c-1-3.18-1-7.06,2.56-7.28A38.38,38.38,0,0,0,173.26,174.94Z" transform="translate(-0.5 -0.98)"/><path class="cls-4" d="M250,155c-1.13.52-2.27,1-3.41,1.52a15.89,15.89,0,0,1-3-1c.6-.15-2.78-8.42,3-7.17.39,5-2.17,3.49,3.76,5.72A5,5,0,0,1,250,155Z" transform="translate(-0.5 -0.98)"/><path class="cls-4" d="M144.43,213.86a15.58,15.58,0,0,0-1.34,5.66c-.61-2.45-1.42-2.55-2.38-.12-.15-3-3-13.43.39-13.43C144.61,207,138.65,213.4,144.43,213.86Z" transform="translate(-0.5 -0.98)"/><path class="cls-4" d="M218.79,184.8c5.09-.25,2.24,1.88,5.88,1.93.47,2.08-.64,2.61-3.19,1.5,1.74-.58-5.12-.29-7-.14C215.36,187.9,223.74,187.39,218.79,184.8Z" transform="translate(-0.5 -0.98)"/><path class="cls-4" d="M237.59,221.23c-.5-1.75-1.82,1.37-3.14.67,1.81-5.71,2.49-2.94,5.22-5.84,1.41-4.41-2.38-1.58-3.47-4.08.74-1.35,5.73-4.2,7.41-2.47-.5.79-.38,7.57-1.39,7.83.54,1.26,3.55-3.42,3.92-2.28-.72,1.62-.72,1.91-.39,1.79s.66-.42,1.13-.63a6.94,6.94,0,0,0-1.13.63c-6.94,4.63-6.47,21.33-17.41,14.81,1.83-2.18,1.16-3.07,2.18-5.39C233.67,228.41,238.52,224.68,237.59,221.23Z" transform="translate(-0.5 -0.98)"/><path class="cls-4" d="M239.25,182.79c.45,1.2-4.39,6.92-4.7,5.77C234.3,187.65,237,181.13,239.25,182.79Z" transform="translate(-0.5 -0.98)"/><path class="cls-4" d="M195.92,349.56a9.79,9.79,0,0,1-2.51-1.21c-1.29,1-2.41,1.16-2.64-.58a1.58,1.58,0,0,1,.22-.8c-6.42-3.77-16.9-10.52-17-11.62-1-9.07,18.64,5.77,16.81,6.09-.88.17-6.52-3.53-6.58-1.71,1.94,2.53,5,3.9,7.68,5.67,1.19-2,2.71-4.34,1.18-4.63-1-1.17-.21-2.13,2.28-2.86,5.36-.52,2.13,6.44-1,9.62A8.12,8.12,0,0,1,195.92,349.56Z" transform="translate(-0.5 -0.98)"/><path class="cls-4" d="M127.44,219.2c-1.3-2.2-2.1-2-2.33.53-1-2.82-6.71-12-3.48-13,3.64,0-.23,7.82,5.45,6.59A15.13,15.13,0,0,0,127.44,219.2Z" transform="translate(-0.5 -0.98)"/><path class="cls-4" d="M118.39,219.24c-2.36-4.84-.21-2.78,1.62-5.89.56,1.17,1.15,2.35,1.75,3.53A3.1,3.1,0,0,0,118.39,219.24Z" transform="translate(-0.5 -0.98)"/><path class="cls-4" d="M125.94,259.78c2.59-.28,4.13-4.15,3.65,2,1.9,2.05-6.72,1.2-8.26,0-.11,2-.44,7.06-1.12,6.77C120.49,261,119.43,260.44,125.94,259.78Z" transform="translate(-0.5 -0.98)"/><path class="cls-4" d="M144.49,330.22c-5.62-2.53,3.14-3-1-5.17,1.17.39,1.87,0,2.09-1,2.24.42,3,1.71,5.53,2.05C152.51,329.15,141.39,326.49,144.49,330.22Z" transform="translate(-0.5 -0.98)"/><path class="cls-4" d="M145.21,309.5c-.15-.87,3.42-6.58,1.57-6.6-4,3.23-4.74,9.56-9.56,11.92-.43-.57,12.16-22.06,13.73-22.25C160,291.33,145.6,311.36,145.21,309.5Z" transform="translate(-0.5 -0.98)"/><path class="cls-4" d="M128.09,342.29c1.3,1.42,2.36,1,3.93,4.64C130.05,348.62,128.11,342.31,128.09,342.29Z" transform="translate(-0.5 -0.98)"/><path class="cls-4" d="M179.48,289a14.44,14.44,0,0,0-3.5,4.66c.4-2.55-.29-2.91-2.13-1.11,1.06-2.83,2.7-13.49,5.78-12.11C182.39,282.79,174.37,286.19,179.48,289Z" transform="translate(-0.5 -0.98)"/><path class="cls-4" d="M177.55,179.23a28.65,28.65,0,0,0,2.92-5.56c.47.64-1.95,8.33-1.25,8.18a1.83,1.83,0,0,1,1.23-1.75c-2.78,7.77-3.68-.51-3.37-3.08-.34-1.31-4.52,5.37-5,5.75C171.23,183.46,182.17,166.35,177.55,179.23Z" transform="translate(-0.5 -0.98)"/><path class="cls-4" d="M176.9,239.92a5.73,5.73,0,0,1,3.06,2.21c2,.11,2.34-2.77,4-1.7C193.23,258.92,170.41,241,176.9,239.92Z" transform="translate(-0.5 -0.98)"/><path class="cls-4" d="M187.09,207.84a6,6,0,0,1,.25,3.82c1.22,1.62,3.68,0,3.89,1.92C182.89,232.56,182.15,203.55,187.09,207.84Z" transform="translate(-0.5 -0.98)"/><path class="cls-4" d="M187.75,182.39c-.6.34-1.21.67-1.88,1-.8,1.88-1.62,4.24-1.84,4.52s.4-1.89,1.29-4.26c-2.22,1-4.56,2.05-6,3.47.35-.51,5.26-5.48,1.36-5.1,1-.43,5.44-4.25,5.82-1.49a.7.7,0,0,0,.1-.08c.81-1.75,1.58-2.81,1.87-1.77,1-1.75-1.61-2.29.84-4.15,1.87,2.5,1.85,4.23.93,5.61.06,2.43,0,5.35.42,5.16a1.78,1.78,0,0,1,.79-2C190.77,190.39,188.53,185.51,187.75,182.39Z" transform="translate(-0.5 -0.98)"/><path class="cls-4" d="M172.83,225.21c3.08,20.43-13.06-3.68-6.6-2.67a5.83,5.83,0,0,1,2.24,3.07C170.37,226.34,171.56,223.66,172.83,225.21Z" transform="translate(-0.5 -0.98)"/><path class="cls-4" d="M165.76,272.81c-1.48.18-1.88-1-1.18-3.47,3.81-7.32,11.53,11.73,5.86,9.18C169.32,278,167.44,271,165.76,272.81Z" transform="translate(-0.5 -0.98)"/><path class="cls-4" d="M167.14,277.46c-4.44,1.41-3.09,11-5.72-2.19C163.66,276.43,166.35,275.17,167.14,277.46Z" transform="translate(-0.5 -0.98)"/><path class="cls-4" d="M203,304c1.61,3.07,1.58,6.36-.1,5.9C201.18,306.86,201.24,303.47,203,304Z" transform="translate(-0.5 -0.98)"/><path class="cls-4" d="M204.4,333.54c4.27,2.38,7.21,2.47,4.63,7.32-2.06,3.17-8.32-2.22-8.41-4.78C203.39,335.82,201.67,339.34,204.4,333.54Z" transform="translate(-0.5 -0.98)"/><path class="cls-4" d="M222.77,284.44c-1.85-1.58-5.53.77-6.47-3.18C219.13,276.52,225.11,280.19,222.77,284.44Z" transform="translate(-0.5 -0.98)"/><path class="cls-4" d="M223.22,320.5c-.87-.85-.16-8.08-2.33-7-1.48-.4-1.45-1.61.09-3.66C227.13,304.34,227.65,324.92,223.22,320.5Z" transform="translate(-0.5 -0.98)"/><path class="cls-4" d="M226.8,315.21c4.89-2.52,8,3.78,3.76,6.13C229.83,319.05,225.46,319.05,226.8,315.21Z" transform="translate(-0.5 -0.98)"/><path class="cls-4" d="M245.22,334.27c-.6,3.75-8.5,1.31-9.6-1,2.42-1.34,2.25,2.61,2.44-3.85C242.91,329.94,245.64,328.82,245.22,334.27Z" transform="translate(-0.5 -0.98)"/><path class="cls-4" d="M238.19,267.63c.36-3.5,2.28-6.26,3.39-4.85C241.19,266.25,239.35,269,238.19,267.63Z" transform="translate(-0.5 -0.98)"/><path class="cls-4" d="M243.27,343.16c-.22,2.64,1.31,9.24-2.45,8.47.06-2.22.2-4.42.45-6.66C240.72,343.07,241.42,342.44,243.27,343.16Z" transform="translate(-0.5 -0.98)"/><path class="cls-4" d="M236.55,251.07c-2.66-2.32-3.8-5.51-2-5.61C237.16,247.76,238.31,250.89,236.55,251.07Z" transform="translate(-0.5 -0.98)"/><path class="cls-4" d="M216.68,343.53a45.24,45.24,0,0,0-5.49,5.82,17.82,17.82,0,0,0,4.29-4.33,14.08,14.08,0,0,1-4.71,6.43C208.89,349.56,215.91,342.7,216.68,343.53Z" transform="translate(-0.5 -0.98)"/><path class="cls-4" d="M212,222.37c0,.09.19.07.21.18-.52,1.18-8,1.94-7.37.89.21-.42,1.85-1.26,3.53-1.73-.73-.17-1.34-.28-2.3-.5,1.95-1.6,1.87-4.56,4.29-4.36C210,220.36,215.24,222.72,212,222.37Z" transform="translate(-0.5 -0.98)"/><path class="cls-4" d="M206,197.31c0-.94,4-6.71,5.85-4.61C212.05,194,206.06,198.49,206,197.31Z" transform="translate(-0.5 -0.98)"/><path class="cls-4" d="M158.84,270.35c-3.82-3.94,1.35-8.69,4.82-5.36C161.62,266.38,162.93,270.53,158.84,270.35Z" transform="translate(-0.5 -0.98)"/><path class="cls-4" d="M160.6,283.44c-4.56-1-8.18,8-3.87-4.74C158.1,280.83,161.05,281.05,160.6,283.44Z" transform="translate(-0.5 -0.98)"/><path class="cls-4" d="M167.75,329.68c-.9-.08-5.22-5.27-5.82-3.55,1.85,4.83,7.62,7.5,8.37,12.81-.68.23-17.17-18.41-16.85-20C155.07,310,169.61,329.89,167.75,329.68Z" transform="translate(-0.5 -0.98)"/><path class="cls-4" d="M142.33,298.73c1.83,2.79-9.57,1.94-5.91,5.15-5.93-1.58,2.61-3.42-1.8-5,1.22.21,1.86-.27,1.9-1.31C138.79,297.71,139.81,298.85,142.33,298.73Z" transform="translate(-0.5 -0.98)"/><path class="cls-4" d="M135.57,272.81c.64,1.12,1.25,2.27,1.86,3.43C135.13,281,130.07,268.2,135.57,272.81Z" transform="translate(-0.5 -0.98)"/><path class="cls-4" d="M129.69,196.37c-.85.11.68-2.07,2.48-4.37a4.31,4.31,0,0,1-1.25,1.12c-1.7.47,5-10.24,5.11-10.43,1.26,0-1,5.32-3.12,8.39,1.72-2.13,3.44-4.12,3.47-4.18C138,187.18,132.06,195.77,129.69,196.37Z" transform="translate(-0.5 -0.98)"/><path class="cls-4" d="M115.46,237.16c-2.74,3.86-4.62,4.47-5.7,1.77C112.45,235.09,114.32,234.5,115.46,237.16Z" transform="translate(-0.5 -0.98)"/><rect class="cls-1" x="304.11" y="334.45" width="53.67" height="13.75"/><rect class="cls-1" x="324.07" y="314.49" width="13.75" height="53.67"/><path class="cls-1" d="M221.65,90.74A69,69,0,1,1,172.83,111,68.84,68.84,0,0,1,221.65,90.74Z" transform="translate(-0.5 -0.98)"/><path class="cls-1" d="M267.23,354.24H105.35a4.84,4.84,0,0,1-4.7-5c.1-3.05.17-6.05.24-9.14.4-16.74.86-35.82,5.1-50.55,3.74-13,10.5-23.31,23.07-32.5,12-8.77,29.33-16.45,54.66-24.52a4.87,4.87,0,0,1,4.55.58,59.37,59.37,0,0,0,16.48,8.25,59.91,59.91,0,0,0,53-8.27h0a4.85,4.85,0,0,1,4.11-.73c27.91,7.79,46.12,16.14,58.2,26.19a60.61,60.61,0,0,1,15.12,18.57c-1.24-.07-2.49-.11-3.73-.11a65.35,65.35,0,0,0-64.22,77.24Z" transform="translate(-0.5 -0.98)"/><path class="cls-5" d="M331.45,402.74A60.43,60.43,0,1,0,288.71,385a60.24,60.24,0,0,0,42.74,17.7Zm0-17.7a42.75,42.75,0,1,1,30.21-12.52A42.58,42.58,0,0,1,331.45,385Z" transform="translate(-0.5 -0.98)"/></svg>